<?xml version="1.0" encoding="UTF-8"?>
<svg id="Layer_1" data-name="Layer 1" xmlns="http://www.w3.org/2000/svg" viewBox="0 0 390 844">
  <defs>
    <style>
      .cls-1 {
        fill: #fede62;
      }

      .cls-2 {
        fill: #fede62;
      }

      .cls-3 {
        letter-spacing: -.07em;
      }

      .cls-3, .cls-4, .cls-5, .cls-6, .cls-7, .cls-8, .cls-9, .cls-10, .cls-11, .cls-12, .cls-13 {
        font-family: MonumentGrotesk-MediumItalic, 'Monument Grotesk';
        font-style: italic;
        font-weight: 500;
      }

      .cls-4 {
        letter-spacing: -.08em;
      }

      .cls-5 {
        letter-spacing: -.09em;
      }

      .cls-6 {
        letter-spacing: -.09em;
      }

      .cls-14, .cls-15, .cls-16, .cls-17, .cls-18, .cls-19, .cls-20, .cls-21, .cls-22, .cls-23 {
        font-family: MonumentGrotesk-Regular, 'Monument Grotesk';
      }

      .cls-14, .cls-23 {
        letter-spacing: -.02em;
      }

      .cls-15 {
        letter-spacing: -.06em;
      }

      .cls-16, .cls-22 {
        letter-spacing: -.03em;
      }

      .cls-17 {
        letter-spacing: -.01em;
      }

      .cls-18 {
        letter-spacing: 0em;
      }

      .cls-24 {
        font-family: Ballet-Regular, Ballet;
        font-variation-settings: 'opsz' 16;
      }

      .cls-24, .cls-25 {
        font-size: 26px;
      }

      .cls-26, .cls-20, .cls-22, .cls-23, .cls-27 {
        font-size: 16px;
      }

      .cls-28, .cls-29 {
        font-size: 20px;
      }

      .cls-30 {
        fill: #fff;
      }

      .cls-31 {
        fill: none;
        stroke: #000;
        stroke-miterlimit: 10;
      }

      .cls-21, .cls-32 {
        font-size: 21px;
      }

      .cls-8 {
        letter-spacing: -.05em;
      }

      .cls-9 {
        letter-spacing: -.05em;
      }

      .cls-10 {
        letter-spacing: -.03em;
      }

      .cls-11 {
        letter-spacing: -.15em;
      }

      .cls-12 {
        letter-spacing: -.04em;
      }

      .cls-27, .cls-29, .cls-32, .cls-25, .cls-33 {
        font-family: NotoSansAdlam-Regular, 'Noto Sans Adlam';
      }

      .cls-13 {
        letter-spacing: 0em;
      }
    </style>
  </defs>
  <path class="cls-2" d="M269.37,305.55c.05.17,1.46.49,1.74,2.74.21,1.72-1.59,2.86.93,3.45-2.53,3.41,2.49,6.45-.65,8.71l2.16.36-2.16,2.15,2.88.37-2.16.71,1.44,2.18-1.49.77c.77,1.97.35,5.28,2.22,5.71l-1.29.47c1.21,1.75-1.05,1.15-.88,1.69l1.44,1.8h-2.17s2.17,3.61,2.17,3.61l-3.61.38c.72,4.03-.19,4.07,3.43,5.74.31.14-.23,1.55,1.62.37l-1.45,4.33c-1.52,1.62-5.25-8.23-5.58-9.2-3.15-9.43-3.98-18.67-2.16-28.48.67-3.64,2.3-9.54,4.86-12.09.4,1.29-1.53,3.38-1.28,4.21Z"/>
  <path class="cls-2" d="M287.24,354l-2.78,1.54-.1,3.5,5.04-2.16c.69.78-1.41,3.42-1.59,3.49-1.16.45-2.44-2.28-2.02,1.55,2.08.21,6.91.77,8.32,2.19,1.16,1.16-.29,3.07,2.46,4.03l-1.42,4.61c-1.7,1.26-15.35-9.93-16.56-12.63-.61-1.35,1.68-.95,1.77-.9.77.52.77,1.72,1.54,1.92l2.45-.66c.07-1.91-1.53-3.19-3.23-2.16l-.35-1.43c1.84.32,1.15-1.72,1.86-2.24,1.04-.75,3.31-.66,4.61-.66Z"/>
  <path class="cls-31" d="M293.01,438.23c-67.09,95.36-183.81,131.82-237.51,121.27s-26-73-2-113"/>
  <path class="cls-30" d="M315.25,293.98c.18-.14,0-.7.12-.8,2.35-1.84,3.13,4.87-.72,3.84-.28,1.55,2.46,4.07.35,5.03-1.83.46-.64-1.4-1.19-1.99-.23-.25-5.4-2.16-6.37-2.34-.3-1.2,1.23-.29,1.46-1.2.18-.74-.07-1.62-.01-2.4l2.15,1.44,1.08-2.86,3.13,1.27Z"/>
  <path class="cls-30" d="M317.52,331.63l-2.2-.31c-1.35-1-.85-9.04-.71-10.9.1-1.29-.2-2.33,1.12-3.19,2.48,1.48,3.12,13.56,1.79,14.41Z"/>
  <path class="cls-30" d="M324.03,344.62c-2.19,3.42-6.1,2.19-9.38,2.15-.09-1.66-.25-1.29,1.07-1.44,2.72-.32,5.6-.08,8.31-.71Z"/>
  <path class="cls-31" d="M93.5,368.5c29.99-28.39,180.29-117.02,227-99,38.99,15.04,5.92,104.3,3,112-1.36,3.59-2.82,7.14-4.36,10.66"/>
  <path class="cls-1" d="M208.9,274.01c-7.23-7.94-11.36-7.93-29.29,5.56-1.21.91-2.42-.06-1.46-1.23,15.29-18.59,16.28-24.69,7.32-48.04-.58-1.51.92-2.11,1.82-.77,13.09,19.33,17.04,20.66,26.71,15.21.41-.23.69.74.35,1.21-7.35,10.42-8.16,15.17-4.74,27.05.15.54-.42,1.33-.73.99Z"/>
  <path class="cls-1" d="M146.88,297.49c-13.55-15.43-19.09-17.04-40.74-7.24-1.47.67-2.68-1.17-1.48-2.25,17.57-16,18.28-21.72,9.49-40.27-.44-.93.76-1.16,1.48-.3,13.45,15.81,18.25,17.92,29.12,14.95.47-.13,1.12.85.81,1.23-7.03,8.8-7,14.04,2.19,32.66.5,1-.19,2.01-.87,1.24Z"/>
  <path class="cls-2" d="M91.94,391.69c-20.19-27.23-28.43-30.85-66.54-15.83-3.1,1.22-5.39-2.75-2.78-4.82,32.08-25.48,33.07-34.42,19.61-65.53-.66-1.52,1.2-1.29,2.3.25,20.02,28.09,26.75,32.61,40.3,31.32.55-.05,1.43,1.47,1.11,1.92-7.9,11.09-7.35,19.18,6.94,50.57.78,1.72.06,3.45-.93,2.11Z"/>
  <path class="cls-1" d="M191.67,538.43c-61.28-45.76-78.41-49.86-124.12-24.24-2.92,1.64-7.38-3.08-5.52-5.79,28.17-41.16,24.51-55.46-12.19-96.45-1.7-1.9.73-2.78,3.02-1.12,46.26,33.43,60.99,37.72,87.95,27.7,1.21-.45,4.21,1.95,3.76,3.02-10.22,24.58-4.16,38.71,48.31,93.16,3.09,3.21,2.16,6.25-1.21,3.73Z"/>
  <path class="cls-1" d="M365.18,554.16c-54.26-30.47-70.51-29.58-113.18,14.81-2.71,2.81-7.32-.88-5.71-4.55,25.27-57.41,20.94-73.71-20.31-114.68-2.03-2.02.52-4.02,3.16-2.53,50.36,28.49,65.18,29.07,91.63,7.81,1.19-.96,4.1,1.14,3.66,2.64-9.9,33.55-4.13,48.39,41.94,92.19,2.53,2.4,1.59,5.89-1.2,4.32Z"/>
  <path d="M59.15,374.68c.47-.57.99-1.1,1.57-1.57.58-.48,1.17-.89,1.78-1.23h1.35c-.42.12-.9.34-1.44.65-.54.31-1.08.67-1.61,1.08-.53.41-1,.84-1.42,1.29-.85.94-1.63,1.99-2.35,3.17-.72,1.18-1.43,2.39-2.12,3.64-.69,1.25-1.42,2.45-2.19,3.6-.76,1.15-1.61,2.18-2.55,3.08-.87.85-1.89,1.58-3.07,2.2-1.18.61-2.44,1.09-3.79,1.42-1.35.33-2.72.49-4.11.49-1.96,0-3.66-.29-5.1-.88-1.44-.59-2.55-1.42-3.33-2.5-.78-1.07-1.17-2.35-1.17-3.82,0-1.07.27-2.08.81-3.02s1.29-1.76,2.25-2.48c.96-.72,2.08-1.28,3.34-1.68,1.27-.4,2.62-.6,4.06-.6s2.65.19,3.69.56c1.04.37,1.85.9,2.42,1.59.57.69.86,1.5.86,2.43,0,.81-.21,1.58-.64,2.29-.43.71-1.01,1.34-1.76,1.88-.74.55-1.61.97-2.59,1.27-.98.3-2.03.45-3.16.45-1.4,0-2.52-.26-3.34-.77-.82-.51-1.23-1.19-1.23-2.04,0-.75.35-1.42,1.04-2.02s1.62-1.07,2.77-1.43c1.15-.35,2.41-.53,3.78-.53,1.46,0,2.8.17,4.04.52,1.24.35,2.31.84,3.22,1.47.91.63,1.62,1.38,2.12,2.24.5.86.75,1.79.75,2.79,0,1.27-.32,2.45-.96,3.55-.64,1.1-1.54,2.06-2.71,2.89-1.16.82-2.51,1.46-4.04,1.92-1.53.46-3.2.69-5,.69-2.22,0-4.25-.29-6.1-.88-1.85-.59-3.44-1.43-4.78-2.51-1.34-1.08-2.38-2.36-3.12-3.83s-1.1-3.1-1.1-4.89.37-3.39,1.1-4.88c.74-1.48,1.78-2.76,3.13-3.85,1.35-1.08,2.95-1.92,4.8-2.52,1.85-.6,3.87-.9,6.07-.9,1.54,0,2.97.17,4.29.52,1.32.35,2.45.84,3.41,1.47.95.63,1.64,1.37,2.05,2.2l-.26.08c-.4-.8-1.06-1.49-1.98-2.09-.92-.6-2.02-1.07-3.3-1.4-1.28-.34-2.69-.51-4.21-.51-2.17,0-4.16.29-5.97.87-1.81.58-3.38,1.4-4.71,2.46-1.33,1.06-2.35,2.31-3.08,3.76-.73,1.45-1.09,3.05-1.09,4.8s.36,3.33,1.09,4.78c.73,1.46,1.75,2.71,3.07,3.76,1.32,1.05,2.88,1.86,4.69,2.44,1.81.58,3.81.87,5.99.87,1.75,0,3.38-.22,4.89-.66,1.51-.44,2.83-1.06,3.97-1.86,1.13-.8,2.02-1.73,2.65-2.79s.95-2.22.95-3.47-.43-2.46-1.29-3.47c-.86-1.01-2.03-1.81-3.52-2.39-1.49-.58-3.19-.87-5.1-.87-1.33,0-2.56.17-3.67.51s-1.99.78-2.65,1.34c-.66.56-.99,1.16-.99,1.82,0,.8.39,1.43,1.17,1.89.78.46,1.83.69,3.14.69,1.08,0,2.09-.15,3.03-.44.95-.29,1.78-.7,2.51-1.22s1.3-1.12,1.72-1.81c.42-.68.62-1.41.62-2.17,0-.87-.28-1.62-.83-2.27s-1.33-1.15-2.34-1.51-2.18-.53-3.54-.53-2.7.19-3.93.58-2.31.93-3.25,1.62c-.94.69-1.67,1.5-2.21,2.41-.54.91-.81,1.88-.81,2.9,0,1.85.79,3.3,2.37,4.34,1.58,1.04,3.77,1.56,6.58,1.56,1.49,0,2.83-.18,4.02-.55,1.19-.36,2.34-.94,3.45-1.73s2.27-1.82,3.48-3.11,2.57-2.84,4.08-4.68c1.51-1.84,3.28-3.99,5.3-6.45ZM45.06,373.09l-2.06-.09c1.14-1.21,4.41-1.91,6.04-1.91.94,0,1.76.17,2.47.51.71.34,1.27.81,1.68,1.42.41.61.61,1.3.61,2.08,0,1.04-.31,1.96-.92,2.76s-1.46,1.42-2.55,1.87-2.34.68-3.76.68c-1.63,0-3.08-.27-4.34-.82-1.26-.55-2.26-1.3-2.99-2.26-.73-.96-1.09-2.05-1.09-3.26s.29-2.3.86-3.32c.57-1.01,1.37-1.9,2.4-2.67,1.03-.76,2.24-1.36,3.63-1.78,1.39-.42,2.89-.64,4.5-.64,1.8,0,3.47.24,5.02.73,1.54.49,2.89,1.16,4.06,2.03,1.16.87,2.07,1.88,2.72,3.03.65,1.15.97,2.4.97,3.73,0,1.14-.22,2.22-.66,3.24-.44,1.01-1.05,1.92-1.83,2.7-.78.79-1.68,1.4-2.69,1.85-1.02.44-2.09.66-3.24.66-.85,0-1.61-.15-2.29-.44l.1-.23c.29.12.62.22.99.3.36.08.76.12,1.2.12,1.11,0,2.15-.22,3.13-.65.98-.43,1.85-1.03,2.6-1.78.76-.75,1.35-1.62,1.78-2.61.43-.99.65-2.04.65-3.15,0-1.3-.32-2.51-.96-3.63-.64-1.12-1.54-2.1-2.68-2.94-1.14-.84-2.47-1.5-3.98-1.98-1.51-.48-3.14-.71-4.89-.71-1.58,0-3.04.21-4.39.62-1.35.42-2.53.99-3.54,1.73s-1.79,1.6-2.35,2.59-.84,2.05-.84,3.2.35,2.2,1.06,3.12c.71.92,1.68,1.64,2.91,2.17,1.23.53,2.63.79,4.19.79,1.37,0,2.58-.21,3.63-.64,1.05-.42,1.87-1.02,2.46-1.78.59-.76.88-1.64.88-2.63,0-.73-.2-1.37-.58-1.94-.39-.56-.92-1-1.6-1.33s-1.45-.48-2.31-.48c-1.56,0-2.88.58-3.98,1.74Z"/>
  <path d="M58.01,390.64c.37,0,.87-.2,1.51-.58.64-.39,1.33-.9,2.08-1.52.74-.62,1.45-1.3,2.11-2.03l.31-.34h.26l-.23.26c-.71.81-1.46,1.55-2.25,2.21s-1.52,1.18-2.18,1.57-1.21.58-1.62.58c-.22,0-.45-.07-.68-.22-.22-.15-.34-.39-.34-.72,0-.45.17-.92.52-1.42.35-.49.78-1,1.3-1.52s1.04-1.02,1.56-1.51c.52-.49.95-.93,1.3-1.34.35-.41.52-.76.52-1.05,0-.31-.19-.47-.57-.47-.17,0-.37.03-.6.09-.22.06-.48.14-.75.25l.21-.29c.22-.09.45-.16.66-.23s.45-.1.69-.1c.43,0,.78.09,1.05.26.27.17.4.46.4.86,0,.49-.2.97-.59,1.46-.39.49-.88.96-1.46,1.43-.58.47-1.16.92-1.74,1.37-.58.44-1.07.87-1.46,1.29s-.58.81-.58,1.2c0,.35.19.52.57.52ZM57.33,386.17h-.26l.31-.34c1.59-1.75,2.88-3.19,3.86-4.32.98-1.13,1.62-1.92,1.94-2.37h1.12c-.69.52-1.56,1.3-2.59,2.33s-2.38,2.47-4.04,4.33l-.34.36Z"/>
  <path d="M63.42,390.8c-.28,0-.49-.12-.64-.36-.15-.24-.22-.58-.22-1.01,0-.59.17-1.21.52-1.87.35-.66.81-1.3,1.4-1.91.59-.62,1.25-1.17,1.98-1.68.73-.5,1.48-.9,2.25-1.2.77-.29,1.5-.44,2.2-.44.59,0,.88.23.88.68,0,.42-.27.95-.81,1.6-.54.65-1.21,1.4-2.03,2.25-.64.68-1.32,1.31-2.03,1.91-.71.6-1.38,1.09-1.99,1.47-.62.38-1.12.57-1.52.57ZM63.44,390.62c.33,0,.78-.16,1.34-.49.56-.33,1.19-.79,1.89-1.38.69-.59,1.41-1.27,2.16-2.03.82-.85,1.47-1.58,1.98-2.2s.75-1.11.75-1.5c0-.29-.19-.44-.57-.44-.35,0-.78.14-1.31.42s-1.09.65-1.69,1.1c-.6.46-1.19.97-1.78,1.52s-1.13,1.12-1.61,1.69c-.49.57-.88,1.1-1.17,1.6-.29.49-.44.91-.44,1.23,0,.31.16.47.47.47ZM71.89,386.43c-.57.64-1.12,1.14-1.64,1.49-.52.36-.96.53-1.33.53-.62,0-.94-.3-.94-.91,0-.36.09-.72.27-1.08.18-.35.5-.79.95-1.31h1.25l-1.59,1.77c-.26.26-.39.56-.39.91,0,.31.16.47.47.47.29,0,.68-.16,1.14-.48.47-.32.95-.76,1.46-1.31l.31-.34h.26l-.23.26Z"/>
  <path d="M71.27,390.75c-.57,0-.86-.44-.86-1.33,0-.59.17-1.21.52-1.87.35-.66.81-1.3,1.4-1.91.59-.62,1.25-1.17,1.98-1.68.73-.5,1.48-.9,2.25-1.2.77-.29,1.5-.44,2.2-.44.59,0,.88.23.88.68,0,.42-.27.95-.81,1.6-.54.65-1.21,1.4-2.03,2.25-.64.66-1.32,1.29-2.03,1.88-.71.6-1.38,1.08-1.99,1.46-.62.37-1.12.56-1.52.56ZM71.29,390.57c.33,0,.78-.16,1.34-.49.56-.33,1.2-.78,1.9-1.36.7-.58,1.42-1.24,2.14-1.99.82-.85,1.47-1.58,1.98-2.2s.75-1.11.75-1.5c0-.29-.19-.44-.57-.44-.35,0-.78.14-1.31.42s-1.09.65-1.69,1.1c-.6.46-1.19.97-1.78,1.52s-1.13,1.12-1.61,1.69c-.49.57-.88,1.1-1.17,1.6-.29.49-.44.91-.44,1.23,0,.28.16.42.47.42ZM78.81,385.76c-.8.88-1.43,1.6-1.91,2.16-.48.55-.82,1-1.02,1.34s-.3.63-.3.87c0,.35.14.52.42.52.31,0,.76-.18,1.35-.53.59-.35,1.25-.84,1.99-1.47s1.48-1.33,2.22-2.13l.31-.34h.26l-.23.26c-.74.81-1.5,1.56-2.28,2.22-.77.67-1.48,1.19-2.12,1.57-.64.38-1.16.57-1.56.57-.19,0-.36-.07-.51-.22-.15-.15-.22-.33-.22-.56,0-.59.32-1.38.96-2.37.64-.99,1.53-2.07,2.68-3.25l5.62-6.34h1.14l-6.81,7.7ZM85.62,378.06h-1.14l9-10.19h2.13c-.49.23-1.35.94-2.59,2.13-1.24,1.2-2.74,2.79-4.51,4.78l-2.88,3.28Z"/>
  <path d="M85,382.69h2.03c-.38.19-.87.54-1.46,1.04-.59.5-1.21,1.07-1.85,1.7-.64.63-1.24,1.27-1.81,1.91-.56.64-1.02,1.22-1.38,1.73-.36.51-.53.87-.53,1.08,0,.33.14.49.42.49.33,0,.82-.21,1.46-.64.64-.42,1.37-1.01,2.18-1.75.81-.75,1.63-1.58,2.44-2.5h.29c-1.51,1.6-2.82,2.83-3.94,3.72-1.12.88-1.94,1.33-2.46,1.33-.21,0-.37-.07-.48-.21-.11-.14-.17-.32-.17-.55,0-.45.16-.98.48-1.57.32-.6.86-1.36,1.62-2.28.76-.92,1.81-2.09,3.15-3.51ZM84.79,390.8c-.5,0-.75-.26-.75-.78,0-.66.42-1.56,1.25-2.72.83-1.15,2.17-2.69,4-4.61h2.03c-.22.12-.5.3-.82.53-.32.23-.68.55-1.08.95-1.21,1.21-2.18,2.21-2.91,2.99-.73.78-1.26,1.4-1.59,1.86-.33.46-.49.83-.49,1.1,0,.35.13.52.39.52.31,0,.75-.19,1.33-.57.57-.38,1.21-.88,1.91-1.51.7-.62,1.39-1.31,2.07-2.05l.31-.34h.26l-.23.26c-.75.85-1.49,1.6-2.22,2.26-.74.66-1.41,1.17-2.02,1.55-.61.37-1.08.56-1.43.56Z"/>
  <path d="M90.74,390.8c-.43,0-.78-.17-1.05-.52-.27-.35-.4-.79-.4-1.33s.16-1.14.48-1.74c.32-.61.75-1.2,1.3-1.77.55-.57,1.16-1.09,1.83-1.55.68-.46,1.37-.83,2.09-1.1.72-.28,1.41-.42,2.07-.42.85,0,1.27.26,1.27.78,0,.28-.15.63-.46,1.07-.3.43-.65.8-1.05,1.09h-1.2c.35-.16.7-.38,1.05-.68.36-.29.66-.59.91-.9.25-.3.38-.54.38-.71,0-.29-.23-.44-.7-.44s-.99.18-1.61.53c-.62.36-1.27.82-1.95,1.39-.68.57-1.3,1.19-1.87,1.86-.57.67-1.04,1.31-1.4,1.94-.36.62-.54,1.16-.54,1.61,0,.49.3.73.91.73.64,0,1.37-.18,2.18-.55.81-.36,1.64-.86,2.48-1.48s1.61-1.33,2.3-2.11l.31-.34h.26l-.23.26c-.74.85-1.55,1.6-2.43,2.26-.88.66-1.74,1.17-2.59,1.55s-1.63.56-2.34.56Z"/>
  <path d="M99.56,385.76c-1.01,1.13-1.72,2.02-2.13,2.67s-.62,1.19-.62,1.62c0,.4.16.6.47.6.33,0,.7-.13,1.12-.39.42-.26.93-.69,1.55-1.29.61-.6,1.39-1.42,2.33-2.46l.31-.34h.26l-.23.26c-1.4,1.59-2.52,2.72-3.34,3.38-.82.66-1.51.99-2.07.99-.61,0-.91-.34-.91-1.01,0-1.06.6-2.26,1.79-3.61.35-.42.68-.81.99-1.18.31-.37.67-.78,1.06-1.22.4-.44.89-.98,1.48-1.61.59-.63,1.33-1.43,2.24-2.38.9-.95,2.01-2.12,3.33-3.51.29,0,.63-.03,1.01-.08.38-.05.76-.13,1.14-.23-.55.4-1.34,1.09-2.37,2.07-1.02.98-2.17,2.14-3.46,3.47-1.28,1.33-2.6,2.76-3.95,4.26ZM99.43,380.35v-.23h13.39v.23h-13.39Z"/>
  <path d="M143.13,374.71c.8-.75,1.47-1.33,2.03-1.76.55-.42,1.09-.78,1.61-1.05h1.33c-.42.12-.91.34-1.48.65s-1.14.67-1.71,1.08-1.09.84-1.56,1.29c-.92.97-1.76,2.05-2.52,3.24-.76,1.19-1.51,2.41-2.24,3.67-.73,1.26-1.5,2.49-2.31,3.69-.81,1.21-1.73,2.31-2.76,3.31-1.27,1.23-2.76,2.16-4.48,2.78s-3.63.94-5.71.94c-1.68,0-3.22-.26-4.6-.79-1.39-.53-2.49-1.33-3.32-2.42-.82-1.08-1.23-2.44-1.23-4.07,0-1.13.27-2.17.81-3.13.54-.96,1.29-1.8,2.26-2.52s2.11-1.28,3.42-1.68c1.31-.4,2.73-.6,4.28-.6,2.48,0,4.62.39,6.42,1.18s3.19,1.91,4.17,3.35c.98,1.45,1.47,3.16,1.47,5.13,0,1.51-.35,2.89-1.04,4.15s-1.68,2.34-2.95,3.26c-1.27.92-2.77,1.63-4.5,2.13-1.72.5-3.63.75-5.71.75s-3.94-.31-5.69-.92c-1.75-.62-3.28-1.47-4.59-2.57-1.31-1.1-2.33-2.38-3.06-3.85-.73-1.46-1.09-3.06-1.09-4.77s.39-3.25,1.17-4.72c.78-1.46,1.86-2.75,3.25-3.86s2.99-1.98,4.81-2.6,3.78-.94,5.88-.94,3.83.3,5.37.91c1.53.61,2.73,1.44,3.6,2.51s1.3,2.31,1.3,3.73c0,1.09-.26,2.11-.78,3.06-.52.94-1.24,1.77-2.17,2.48-.93.71-2.01,1.27-3.24,1.66-1.23.4-2.57.6-4,.6-1.58,0-2.81-.25-3.71-.75-.89-.5-1.34-1.19-1.34-2.05,0-.73.25-1.37.74-1.92s1.18-.98,2.07-1.29c.88-.3,1.91-.46,3.07-.46,1.49,0,2.69.36,3.61,1.07l-.18.21c-.83-.68-1.98-1.01-3.43-1.01-1.11,0-2.09.14-2.93.43-.84.29-1.5.69-1.98,1.2-.48.51-.71,1.1-.71,1.78,0,.8.43,1.42,1.29,1.87s2.02.68,3.5.68c1.38,0,2.68-.19,3.89-.57,1.2-.38,2.26-.91,3.16-1.6.9-.68,1.61-1.49,2.12-2.4s.77-1.91.77-2.96c0-1.37-.42-2.57-1.26-3.6-.84-1.03-2.01-1.84-3.51-2.42-1.5-.58-3.25-.87-5.24-.87s-3.97.31-5.77.92-3.38,1.46-4.73,2.55c-1.35,1.08-2.41,2.34-3.19,3.77-.77,1.43-1.16,2.97-1.16,4.62s.36,3.22,1.08,4.65,1.72,2.7,3.02,3.78c1.29,1.08,2.79,1.92,4.51,2.52,1.71.6,3.57.9,5.56.9s3.9-.25,5.6-.74,3.18-1.19,4.42-2.08c1.24-.89,2.2-1.95,2.89-3.17.68-1.22,1.03-2.57,1.03-4.04,0-1.94-.48-3.61-1.44-5.02-.96-1.4-2.32-2.49-4.08-3.25-1.76-.76-3.85-1.14-6.28-1.14-1.51,0-2.9.19-4.17.57-1.27.38-2.39.92-3.34,1.62-.95.7-1.69,1.52-2.21,2.44-.52.93-.78,1.94-.78,3.03,0,1.32.36,2.42,1.09,3.3.73.88,1.72,1.55,2.99,1.99,1.27.44,2.71.66,4.34.66s3.12-.3,4.54-.91c1.41-.61,2.73-1.41,3.96-2.42,1.23-1,2.39-2.12,3.47-3.34,1.08-1.22,2.11-2.45,3.07-3.69.96-1.24,1.88-2.4,2.74-3.48.87-1.08,1.7-1.97,2.49-2.67ZM128.08,379.88c-1.89,0-3.43-.3-4.62-.9s-2.06-1.37-2.63-2.31c-.56-.94-.84-1.93-.84-2.95s.26-1.96.78-2.91,1.28-1.82,2.28-2.59c1-.77,2.23-1.39,3.69-1.85,1.46-.46,3.13-.69,5.01-.69,1.06,0,2.11.15,3.15.46,1.04.3,2.06.69,3.05,1.17,1,.48,1.95.98,2.86,1.51.91.53,1.75,1.03,2.52,1.5.77.47,1.46.85,2.05,1.14.6.29,1.09.44,1.47.44v.29c-.48.02-1.11-.18-1.87-.58-.76-.41-1.63-.91-2.6-1.51s-2.02-1.2-3.16-1.79-2.31-1.1-3.54-1.51c-1.22-.41-2.46-.61-3.71-.61-1.63,0-3.15.2-4.56.58-1.41.39-2.65.94-3.71,1.65-1.06.71-1.88,1.54-2.47,2.48-.59.94-.88,1.96-.88,3.06s.32,2.14.96,2.99c.64.85,1.55,1.51,2.72,1.99s2.53.71,4.07.71c1.28,0,2.45-.23,3.5-.69,1.05-.46,1.88-1.07,2.51-1.85.62-.77.94-1.62.94-2.56,0-.66-.16-1.24-.48-1.75s-.78-.88-1.39-1.1l.16-.21c.64.28,1.13.68,1.48,1.21.35.53.52,1.15.52,1.86,0,.99-.32,1.89-.96,2.69-.64.81-1.51,1.45-2.61,1.92-1.1.48-2.33.71-3.68.71ZM160.47,372.31c-1.23.1-2.53.43-3.89.99-1.36.56-2.73,1.27-4.12,2.13s-2.74,1.83-4.05,2.89c-1.32,1.06-2.55,2.14-3.69,3.25-1.14,1.11-2.15,2.18-3.02,3.21-.87,1.03-1.54,1.95-2.03,2.77-.49.81-.73,1.46-.73,1.92,0,.03,0,.05.03.05.05,0,.16-.11.32-.34.16-.23.35-.49.55-.79.2-.3.38-.58.56-.85.59-.9,1.03-1.87,1.33-2.9.29-1.03.55-2.09.77-3.19.22-1.09.48-2.19.79-3.29.31-1.1.77-2.17,1.37-3.22s1.43-2.03,2.48-2.95l.31.08c-.55.36-1.04.94-1.47,1.73s-.82,1.72-1.18,2.79c-.36,1.07-.72,2.21-1.08,3.41-.36,1.2-.74,2.39-1.14,3.58-.41,1.19-.87,2.3-1.38,3.33-.51,1.03-1.11,1.9-1.78,2.61-.43.43-.71.65-.83.65s-.18-.06-.18-.18c0-.52.25-1.22.74-2.09.49-.88,1.18-1.85,2.07-2.94.88-1.08,1.91-2.2,3.08-3.35,1.17-1.15,2.43-2.27,3.78-3.37,1.35-1.09,2.74-2.08,4.16-2.98,1.42-.89,2.83-1.62,4.24-2.2,1.4-.57,2.74-.91,4-1.01,1.96-.21,3.4-.39,4.33-.55.93-.16,1.39-.4,1.39-.73,0-.09-.09-.17-.27-.25-.18-.08-.42-.12-.71-.12-1.2,0-2.41.29-3.65.86-1.24.57-2.47,1.32-3.68,2.25s-2.38,1.92-3.48,2.98c-1.11,1.06-2.15,2.08-3.12,3.07-.94,1.01-1.85,2.08-2.74,3.21-.89,1.14-1.69,2.28-2.39,3.45s-1.26,2.3-1.68,3.41-.62,2.15-.62,3.12c0,.9.2,1.62.58,2.15.39.53.92.79,1.6.79s1.29-.23,1.85-.68l.08.18c-.54.5-1.19.75-1.95.75-.87,0-1.58-.34-2.14-1.03-.56-.69-.85-1.56-.85-2.61,0-.92.22-1.9.65-2.95.43-1.05,1-2.11,1.69-3.17s1.44-2.1,2.25-3.09c.81-1,1.59-1.91,2.35-2.73.76-.82,1.42-1.5,1.98-2.04.88-.83,1.85-1.72,2.91-2.65,1.06-.94,2.16-1.82,3.31-2.67,1.15-.84,2.31-1.52,3.48-2.05,1.17-.53,2.31-.79,3.42-.79.54,0,.98.05,1.34.16s.53.25.53.44c0,.26-.19.48-.57.65-.38.17-1.04.33-1.98.47-.94.14-2.23.29-3.9.44Z"/>
  <path d="M149.35,390.75c-.57,0-.86-.44-.86-1.33,0-.59.17-1.21.52-1.87.35-.66.81-1.3,1.4-1.91.59-.62,1.25-1.17,1.98-1.68.73-.5,1.48-.9,2.25-1.2s1.5-.44,2.2-.44c.59,0,.88.23.88.68,0,.42-.27.95-.81,1.6-.54.65-1.21,1.4-2.03,2.25-.64.66-1.32,1.29-2.03,1.88s-1.37,1.08-1.99,1.46c-.62.37-1.12.56-1.52.56ZM149.37,390.57c.33,0,.78-.16,1.34-.49.56-.33,1.2-.78,1.9-1.36.7-.58,1.42-1.24,2.14-1.99.81-.85,1.47-1.58,1.98-2.2.5-.62.75-1.11.75-1.5,0-.29-.19-.44-.57-.44-.35,0-.79.14-1.31.42-.53.28-1.09.65-1.69,1.1-.6.46-1.19.97-1.78,1.52-.59.55-1.13,1.12-1.61,1.69s-.88,1.1-1.17,1.6c-.29.49-.44.91-.44,1.23,0,.28.16.42.47.42ZM159.93,386.17l-.23.26c-.71.81-1.43,1.56-2.17,2.22-.74.67-1.41,1.19-2.03,1.57-.62.38-1.1.57-1.47.57-.19,0-.36-.07-.51-.22-.15-.15-.22-.33-.22-.56,0-.59.32-1.38.96-2.37.64-.99,1.53-2.07,2.68-3.25h.13l1.56-1.72h2c-.31.17-.63.39-.96.65-.33.26-.64.54-.94.83-1.28,1.28-2.29,2.31-3.03,3.08-.74.77-1.26,1.37-1.57,1.81-.31.43-.47.79-.47,1.07,0,.35.14.52.42.52.31,0,.74-.18,1.3-.53.55-.35,1.18-.84,1.89-1.47.7-.62,1.41-1.33,2.12-2.13l.29-.34h.26Z"/>
  <path d="M159.93,386.17h-.26l.31-.34c.97-1.07,1.9-1.94,2.78-2.59.88-.65,1.59-.98,2.11-.98.21,0,.38.07.52.21s.21.32.21.55c0,.49-.21,1.03-.61,1.64-.41.61-1.11,1.42-2.09,2.44h.34l-.68.91-2.29,2.55h-2.21c.82-.59,1.65-1.27,2.5-2.03s1.63-1.53,2.35-2.29,1.3-1.45,1.74-2.05c.44-.61.66-1.04.66-1.3,0-.29-.15-.44-.47-.44-.28,0-.68.15-1.2.45-.52.3-1.08.71-1.68,1.22-.6.51-1.17,1.08-1.73,1.7l-.31.34ZM165.52,390.8c-.26,0-.48-.11-.66-.32-.18-.22-.27-.48-.27-.79,0-.49.18-.98.53-1.5.35-.51.8-1.02,1.34-1.52.54-.5,1.07-.99,1.6-1.46.53-.47.97-.89,1.33-1.27s.53-.71.53-.99c0-.26-.16-.39-.47-.39s-.74.16-1.27.49c-.54.33-1.14.76-1.79,1.3s-1.32,1.13-1.97,1.77c-.66.64-1.28,1.27-1.85,1.9h-.29c.57-.64,1.2-1.29,1.88-1.95.69-.66,1.37-1.27,2.04-1.82s1.3-1.01,1.87-1.35c.57-.35,1.04-.52,1.4-.52.26,0,.49.09.7.26.21.17.31.44.31.81,0,.49-.19.98-.56,1.47-.37.49-.83.98-1.37,1.47-.54.49-1.08.96-1.62,1.42-.54.46-1,.89-1.38,1.29-.37.4-.56.75-.56,1.07,0,.14.05.26.17.35s.24.14.38.14c.35,0,.84-.2,1.47-.58.63-.39,1.32-.9,2.07-1.52.74-.62,1.44-1.3,2.08-2.03l.31-.34h.26l-.23.26c-.71.81-1.46,1.55-2.24,2.21s-1.5,1.18-2.16,1.57-1.19.58-1.59.58Z"/>
  <path d="M170.87,390.75c-.57,0-.86-.44-.86-1.33,0-.59.17-1.21.52-1.87.35-.66.81-1.3,1.4-1.91.59-.62,1.25-1.17,1.98-1.68.73-.5,1.48-.9,2.25-1.2s1.5-.44,2.2-.44c.59,0,.88.23.88.68,0,.42-.27.95-.81,1.6-.54.65-1.21,1.4-2.03,2.25-.64.66-1.32,1.29-2.03,1.88s-1.37,1.08-1.99,1.46c-.62.37-1.12.56-1.52.56ZM170.9,390.57c.33,0,.78-.16,1.34-.49.56-.33,1.2-.78,1.9-1.36.7-.58,1.42-1.24,2.14-1.99.81-.85,1.47-1.58,1.98-2.2.5-.62.75-1.11.75-1.5,0-.29-.19-.44-.57-.44-.35,0-.79.14-1.31.42-.53.28-1.09.65-1.69,1.1-.6.46-1.19.97-1.78,1.52-.59.55-1.13,1.12-1.61,1.69s-.88,1.1-1.17,1.6c-.29.49-.44.91-.44,1.23,0,.28.16.42.47.42ZM181.46,386.17l-.23.26c-.71.81-1.43,1.56-2.17,2.22-.74.67-1.41,1.19-2.03,1.57-.62.38-1.1.57-1.47.57-.19,0-.36-.07-.51-.22-.15-.15-.22-.33-.22-.56,0-.59.32-1.38.96-2.37.64-.99,1.53-2.07,2.68-3.25h.13l1.56-1.72h2c-.31.17-.63.39-.96.65-.33.26-.64.54-.94.83-1.28,1.28-2.29,2.31-3.03,3.08-.74.77-1.26,1.37-1.57,1.81-.31.43-.47.79-.47,1.07,0,.35.14.52.42.52.31,0,.74-.18,1.3-.53.55-.35,1.18-.84,1.89-1.47.7-.62,1.41-1.33,2.12-2.13l.29-.34h.26Z"/>
  <path d="M190.74,386.43c-.87.97-1.88,1.98-3.05,3.04s-2.55,2.15-4.15,3.29c-1.6,1.14-3.46,2.31-5.59,3.52-1.35.78-2.64,1.56-3.88,2.33-1.23.77-2.32,1.5-3.26,2.18-.95.68-1.69,1.29-2.24,1.81-.55.52-.82.92-.82,1.2,0,.24.13.36.39.36.68,0,1.57-.35,2.69-1.04,1.12-.69,2.37-1.66,3.74-2.89,1.38-1.23,2.82-2.67,4.32-4.3,1.5-1.64,2.97-3.4,4.41-5.29.22-.29.46-.61.7-.94.24-.33.53-.71.86-1.14.33-.43.72-.95,1.17-1.56l.08.39h-.68l2.83-2.91,1.48-1.79h1.9c-.61.42-1.25.91-1.92,1.47-.68.56-1.33,1.15-1.98,1.76-.64.61-1.21,1.2-1.71,1.77-1.6,2.38-2.99,4.38-4.2,6.01-1.21,1.63-2.19,2.88-2.95,3.74-2.1,2.24-4.07,3.96-5.91,5.16-1.85,1.2-3.44,1.81-4.77,1.81-.54,0-.81-.19-.81-.57,0-.29.29-.73.88-1.3.59-.57,1.38-1.22,2.37-1.95.99-.73,2.1-1.48,3.34-2.26,1.24-.78,2.51-1.52,3.81-2.21,1.84-.99,3.55-2.04,5.13-3.15,1.59-1.11,3.01-2.22,4.28-3.33s2.33-2.15,3.2-3.12l.29-.34h.29l-.23.26ZM180.6,390.75c-.57,0-.86-.44-.86-1.33,0-.59.17-1.21.52-1.87.35-.66.81-1.3,1.4-1.91.59-.62,1.25-1.17,1.98-1.68.73-.5,1.48-.9,2.25-1.2.77-.29,1.5-.44,2.2-.44.59,0,.88.23.88.68,0,.33-.2.77-.61,1.33-.41.56-1.15,1.4-2.22,2.52-.73.76-1.45,1.44-2.17,2.03-.72.59-1.37,1.05-1.96,1.38-.59.33-1.06.49-1.4.49ZM180.62,390.57c.5,0,1.25-.35,2.24-1.07.99-.71,2.04-1.64,3.14-2.78,1.04-1.07,1.76-1.88,2.15-2.4.39-.53.58-.96.58-1.29,0-.29-.19-.44-.57-.44-.35,0-.78.14-1.31.42s-1.09.65-1.69,1.1c-.6.46-1.19.97-1.78,1.52s-1.13,1.12-1.61,1.69c-.49.57-.88,1.1-1.17,1.6-.29.49-.44.91-.44,1.23,0,.28.16.42.47.42Z"/>
  <path d="M190.94,390.64c.57,0,1.24-.18,2-.55.76-.36,1.55-.86,2.37-1.48s1.57-1.33,2.26-2.11l.31-.34h.26l-.23.26c-.73.81-1.52,1.56-2.38,2.22-.86.67-1.69,1.19-2.5,1.57-.81.38-1.5.57-2.09.57-.45,0-.81-.16-1.08-.48-.27-.32-.4-.76-.4-1.31s.16-1.13.49-1.74c.33-.61.77-1.2,1.31-1.78.54-.58,1.16-1.1,1.85-1.57.68-.47,1.39-.84,2.11-1.12s1.41-.42,2.07-.42c.29,0,.53.06.7.18s.26.28.26.47c0,.36-.2.75-.61,1.14-.41.4-.93.77-1.57,1.12-.64.35-1.33.63-2.05.86-.73.23-1.42.34-2.08.34l.23-.23c.62-.03,1.27-.16,1.94-.36.67-.21,1.29-.48,1.86-.81.57-.33,1.04-.68,1.4-1.04.37-.36.55-.7.55-1.01,0-.28-.18-.42-.55-.42-.42,0-.93.18-1.55.55-.62.36-1.25.83-1.91,1.4-.66.57-1.27,1.19-1.85,1.86-.57.67-1.04,1.31-1.39,1.92-.36.62-.53,1.14-.53,1.57,0,.49.27.73.8.73Z"/>
  <path d="M198.82,390.64c.36,0,.87-.2,1.51-.58.64-.39,1.33-.9,2.08-1.52s1.45-1.3,2.11-2.03l.31-.34h.26l-.23.26c-.71.81-1.46,1.55-2.25,2.21s-1.52,1.18-2.18,1.57c-.67.39-1.21.58-1.62.58-.23,0-.45-.07-.68-.22-.23-.15-.34-.39-.34-.72,0-.45.17-.92.52-1.42.35-.49.78-1,1.3-1.52.52-.52,1.04-1.02,1.56-1.51s.95-.93,1.3-1.34c.35-.41.52-.76.52-1.05,0-.31-.19-.47-.57-.47-.17,0-.37.03-.6.09-.23.06-.48.14-.75.25l.21-.29c.23-.09.45-.16.66-.23s.45-.1.69-.1c.43,0,.78.09,1.05.26.27.17.4.46.4.86,0,.49-.2.97-.59,1.46-.39.49-.88.96-1.46,1.43-.58.47-1.16.92-1.74,1.37-.58.44-1.07.87-1.46,1.29-.39.42-.59.81-.59,1.2,0,.35.19.52.57.52ZM198.15,386.17h-.26l.31-.34c1.6-1.75,2.88-3.19,3.86-4.32.98-1.13,1.62-1.92,1.94-2.37h1.12c-.69.52-1.55,1.3-2.59,2.33s-2.38,2.47-4.04,4.33l-.34.36Z"/>
  <path d="M223.78,386.57c0,1.28-.34,2.29-1.03,3.05-.69.76-1.57,1.14-2.65,1.14s-1.95-.46-2.53-1.37v1.17h-1.44v-11.2h1.44v4.24c.6-.83,1.46-1.25,2.58-1.25s1.96.39,2.63,1.16c.67.77,1,1.79,1,3.05ZM222.2,386.57c0-1.04-.19-1.81-.56-2.31-.38-.5-.98-.76-1.82-.76-.88,0-1.49.29-1.8.86-.32.58-.48,1.33-.48,2.23,0,2.05.77,3.07,2.32,3.07.87,0,1.47-.26,1.82-.77.35-.51.53-1.29.53-2.32Z"/>
  <path d="M231.71,382.57l-3.27,8.73c-.35.94-.7,1.6-1.03,1.98-.33.38-.77.57-1.3.57-.45,0-.85-.05-1.22-.16l.04-1.34c.37.12.7.18.99.18.3-.04.52-.17.66-.39.14-.22.39-.76.73-1.63l-3.12-7.94h1.54l1.52,4.32.2.66.5,1.47.72-2.12,1.53-4.32h1.51Z"/>
  <path d="M237.31,388.78v-5.01h-1.16v-1.2h1.16v-2.23h1.42v2.23h1.63v1.2h-1.63v4.95c0,.25.06.42.17.5.12.08.33.12.66.12.15,0,.4-.03.73-.08l.04,1.3c-.39.05-.68.08-.88.08-.74,0-1.29-.15-1.63-.45-.34-.3-.51-.77-.51-1.42Z"/>
  <path d="M246.23,382.37l-.04,1.37c-.06-.02-.18-.02-.37-.02-.43,0-.8.04-1.11.13-.3.09-.57.24-.81.46-.24.22-.41.53-.53.94-.12.41-.18.92-.18,1.53v3.79h-1.44v-8h1.44v1.41c.12-.4.4-.75.87-1.06.46-.3,1.01-.48,1.63-.53.05-.01.23-.02.53-.02Z"/>
  <path d="M254.21,390.57c-.24.04-.54.06-.9.06-.88,0-1.36-.42-1.44-1.25-.45.92-1.34,1.38-2.69,1.38-.75,0-1.38-.2-1.91-.61-.52-.41-.78-.97-.78-1.7,0-.32.05-.6.15-.86.1-.25.23-.47.39-.64.16-.17.37-.32.61-.45.25-.13.49-.23.73-.31.25-.08.52-.14.84-.2l2.64-.51c0-.42-.02-.73-.05-.94-.03-.2-.11-.38-.22-.52-.1-.16-.29-.29-.54-.38s-.56-.14-.91-.14c-.69,0-1.19.14-1.5.41-.3.27-.46.71-.46,1.32l-1.41-.2c.05-.99.38-1.69.99-2.08.6-.4,1.41-.59,2.45-.59s1.76.22,2.27.67c.51.45.77,1.1.77,1.97v3.83c0,.25.03.41.08.49.05.08.18.12.39.12.12,0,.28-.02.46-.07l.03,1.19ZM251.86,386.57l-2.41.53c-.52.12-.9.27-1.13.45-.23.18-.35.48-.35.89,0,.35.14.64.41.85s.62.32,1.04.32c.81,0,1.42-.18,1.83-.55.41-.37.62-.87.62-1.51v-.98Z"/>
  <path d="M262.73,379.36v11.2h-1.45v-1.17c-.59.91-1.43,1.37-2.52,1.37s-1.97-.38-2.66-1.14c-.68-.76-1.02-1.78-1.02-3.06s.34-2.27,1-3.04c.67-.77,1.55-1.16,2.63-1.16s1.97.41,2.57,1.23v-4.24h1.45ZM261.34,386.58c0-.91-.16-1.64-.48-2.21-.32-.56-.92-.84-1.8-.84s-1.46.25-1.83.74c-.37.5-.55,1.26-.55,2.3s.18,1.8.53,2.3c.35.5.96.75,1.82.75.77,0,1.34-.26,1.73-.77.39-.51.59-1.27.59-2.27Z"/>
  <path d="M272.02,386.66c0,.17,0,.28-.02.34h-6.07c.02.89.22,1.54.59,1.97.38.43.94.64,1.68.64.68,0,1.21-.15,1.58-.44.37-.29.61-.74.71-1.35l1.39.11c-.18.93-.58,1.64-1.2,2.12-.62.48-1.44.72-2.46.72-1.24,0-2.2-.39-2.88-1.17-.65-.71-.98-1.73-.98-3.04,0-1.22.34-2.21,1.01-2.98.72-.8,1.67-1.2,2.83-1.2.65,0,1.26.14,1.82.41.56.28,1,.67,1.31,1.17.46.73.69,1.64.69,2.7ZM266.34,384.41c-.23.41-.36.89-.38,1.42h4.57c0-.23-.05-.49-.13-.75-.07-.27-.18-.49-.3-.67-.38-.58-1.01-.87-1.88-.87-.44,0-.82.08-1.15.23-.33.15-.57.37-.73.64Z"/>
  <path d="M277.22,386.9v-1.25h6.72v1.25h-6.72Z"/>
  <path d="M22.41,403.59c0,.87-.07,1.6-.21,2.21-.14.61-.34,1.08-.61,1.43-.27.35-.59.6-.95.75-.36.15-.79.23-1.29.23h-1.37l-.47,5.36h-1.23l1.22-14h2.38c.72,0,1.32.3,1.81.91.48.57.72,1.61.72,3.12ZM21.18,403.66c0-.43-.03-.79-.1-1.07s-.16-.5-.3-.64c-.14-.14-.28-.24-.44-.29-.16-.05-.35-.08-.59-.08h-1.21l-.39,4.62h1.29c.61,0,1.05-.18,1.32-.55.28-.36.41-1.03.41-1.99Z"/>
  <path d="M29.23,399.56l-1.22,14h-1.23l.52-6h-2.99l-.53,6h-1.23l1.22-14h1.24l-.51,5.86h2.99l.52-5.86h1.23Z"/>
  <path d="M29.71,408.05c0-1.22.08-2.37.26-3.43.18-1.06.43-1.99.76-2.78s.74-1.41,1.24-1.86c.5-.45,1.05-.67,1.65-.65.9,0,1.61.54,2.13,1.61s.79,2.51.79,4.31c0,1.19-.09,2.3-.27,3.34s-.44,1.96-.77,2.73-.74,1.39-1.24,1.84-1.04.66-1.63.65c-.92,0-1.64-.5-2.15-1.49-.52-1-.78-2.42-.78-4.27ZM34.31,410.61c.3-.59.53-1.38.69-2.36.16-.98.24-2.03.24-3.15,0-1.19-.13-2.09-.39-2.69-.27-.7-.7-1.05-1.29-1.05-.66,0-1.19.37-1.57,1.11-.31.58-.54,1.4-.71,2.46-.16,1-.25,2.1-.25,3.28s.12,2.01.38,2.54c.28.7.73,1.04,1.34,1.04.65,0,1.18-.39,1.57-1.18Z"/>
  <path d="M42.23,401.68h-2.22l-1.04,11.88h-1.23l1.03-11.88h-2.24l.19-2.12h5.69l-.19,2.12Z"/>
  <path d="M41.85,408.05c0-1.22.08-2.37.26-3.43s.43-1.99.76-2.78c.33-.79.74-1.41,1.24-1.86.5-.45,1.05-.67,1.65-.65.9,0,1.61.54,2.13,1.61.53,1.07.79,2.51.79,4.31,0,1.19-.09,2.3-.27,3.34-.18,1.04-.44,1.96-.77,2.73s-.74,1.39-1.24,1.84-1.04.66-1.63.65c-.92,0-1.64-.5-2.16-1.49-.52-1-.78-2.42-.78-4.27ZM46.44,410.61c.3-.59.53-1.38.69-2.36s.24-2.03.24-3.15c0-1.19-.13-2.09-.39-2.69-.27-.7-.7-1.05-1.29-1.05-.66,0-1.19.37-1.58,1.11-.31.58-.54,1.4-.71,2.46-.17,1-.25,2.1-.25,3.28s.13,2.01.38,2.54c.28.7.73,1.04,1.34,1.04.65,0,1.18-.39,1.56-1.18Z"/>
  <path d="M52.71,405.99h3.19l-.65,7.58h-.99l.02-1.82c-.22.65-.51,1.16-.88,1.52-.36.36-.77.54-1.22.54-.86,0-1.54-.51-2.06-1.52s-.77-2.39-.77-4.15c0-1.3.08-2.48.24-3.54.16-1.06.39-1.99.7-2.78.31-.79.71-1.4,1.2-1.84.49-.44,1.04-.65,1.67-.65.71,0,1.32.39,1.83,1.16s.83,1.86.97,3.26l-1.28.61c-.18-2-.71-3-1.57-3-.37,0-.69.1-.95.3s-.49.54-.7,1.02c-.25.57-.45,1.37-.6,2.42-.15,1-.22,2.05-.22,3.13,0,1.02.11,1.82.33,2.4.13.37.33.66.58.86s.55.3.88.3c.53,0,.97-.32,1.33-.97s.61-1.54.75-2.69h-2.01l.19-2.14Z"/>
  <path d="M61.89,411.58c0,.82.08,1.46.25,1.92v.06h-1.3c-.11-.44-.16-1.04-.16-1.82,0-.35.02-.83.05-1.45,0-.06,0-.14,0-.22,0-.08,0-.15,0-.19s0-.08,0-.11c0-.65-.1-1.1-.3-1.36s-.53-.38-.98-.38h-1.29l-.48,5.52h-1.22l1.22-14h2.46c.72,0,1.31.29,1.76.86.46.55.69,1.53.69,2.92,0,1.03-.12,1.88-.35,2.55s-.57,1.14-1.02,1.42c.47.44.7,1.28.7,2.5,0,.03,0,.24-.02.64-.03.48-.04.85-.04,1.13ZM61.41,403.47c0-.4-.03-.72-.1-.98s-.16-.45-.29-.58c-.13-.13-.28-.22-.43-.26s-.35-.07-.58-.07h-1.26l-.38,4.46h1.27c.59,0,1.03-.19,1.33-.56.3-.37.45-1.05.45-2.02Z"/>
  <path d="M67.33,409.88h-2.67l-.94,3.68h-1.33l3.84-14h1.29l1.4,14h-1.26l-.32-3.68ZM67.16,407.79l-.29-3.38-.02-.28c-.09-1.12-.15-1.87-.17-2.24h0c-.15.67-.35,1.51-.61,2.52l-.87,3.38h1.96Z"/>
  <path d="M75.82,403.59c0,.87-.07,1.6-.21,2.21-.14.61-.34,1.08-.61,1.43-.27.35-.59.6-.95.75-.36.15-.79.23-1.29.23h-1.37l-.47,5.36h-1.23l1.22-14h2.38c.72,0,1.32.3,1.81.91.48.57.72,1.61.72,3.12ZM74.59,403.66c0-.43-.03-.79-.1-1.07s-.16-.5-.3-.64c-.14-.14-.28-.24-.44-.29-.16-.05-.35-.08-.59-.08h-1.21l-.39,4.62h1.29c.61,0,1.05-.18,1.32-.55.28-.36.41-1.03.41-1.99Z"/>
  <path d="M82.65,399.56l-1.22,14h-1.23l.52-6h-2.99l-.53,6h-1.23l1.22-14h1.24l-.51,5.86h2.99l.52-5.86h1.23Z"/>
  <path d="M84.14,399.56h4.66l-.18,2.08h-3.45l-.33,3.83h3.08l-.18,2.06h-3.08l-.35,3.96h3.45l-.18,2.08h-4.66l1.22-14Z"/>
  <path d="M94.18,411.58c0,.82.08,1.46.25,1.92v.06h-1.3c-.11-.44-.16-1.04-.16-1.82,0-.35.02-.83.05-1.45,0-.06,0-.14,0-.22,0-.08,0-.15,0-.19s0-.08,0-.11c0-.65-.1-1.1-.3-1.36s-.53-.38-.98-.38h-1.29l-.48,5.52h-1.22l1.22-14h2.46c.72,0,1.31.29,1.76.86.46.55.69,1.53.69,2.92,0,1.03-.12,1.88-.35,2.55s-.57,1.14-1.02,1.42c.47.44.7,1.28.7,2.5,0,.03,0,.24-.02.64-.03.48-.04.85-.04,1.13ZM93.7,403.47c0-.4-.03-.72-.1-.98s-.16-.45-.29-.58c-.13-.13-.28-.22-.43-.26s-.35-.07-.58-.07h-1.26l-.38,4.46h1.27c.59,0,1.03-.19,1.33-.56.3-.37.45-1.05.45-2.02Z"/>
  <path d="M95.49,416.15c.09-.76.19-1.59.28-2.5.1-.91.17-1.71.21-2.4h.93l.07.22c-.09.71-.21,1.48-.37,2.33s-.32,1.63-.48,2.35h-.64Z"/>
  <path d="M107.01,405.3c0,1.13-.09,2.2-.27,3.21s-.45,1.89-.78,2.65c-.33.75-.75,1.35-1.24,1.78s-1.03.64-1.61.62h-2.6l1.22-14h2.31c.91,0,1.63.52,2.17,1.57.54,1.04.81,2.44.81,4.17ZM105.71,405.23c0-.94-.08-1.7-.25-2.28-.24-.91-.78-1.37-1.63-1.37h-1.05l-.86,9.96h1.15c.41,0,.78-.14,1.1-.42.32-.28.59-.68.79-1.2.24-.59.42-1.29.55-2.12.13-.83.2-1.69.2-2.57Z"/>
  <path d="M108.7,399.56h4.66l-.18,2.08h-3.44l-.33,3.83h3.08l-.18,2.06h-3.08l-.35,3.96h3.45l-.18,2.08h-4.66l1.22-14Z"/>
  <path d="M113.24,409.04l1.25-.36c.05,1.02.24,1.79.55,2.31s.72.79,1.24.79c.46,0,.82-.18,1.09-.54.26-.36.39-.88.39-1.56,0-.21-.03-.4-.05-.57s-.07-.31-.13-.44-.13-.24-.19-.33-.16-.18-.29-.27-.24-.17-.35-.23c-.1-.06-.26-.15-.45-.25-.05-.02-.15-.07-.31-.17-.24-.14-.44-.26-.6-.37-.16-.11-.33-.25-.5-.41-.17-.16-.31-.33-.41-.52-.11-.19-.21-.41-.29-.66s-.16-.55-.2-.88c-.04-.33-.07-.71-.07-1.13,0-.9.12-1.67.36-2.3s.55-1.1.94-1.4.83-.44,1.32-.44c.75,0,1.38.36,1.88,1.09.5.73.8,1.81.9,3.25l-1.24.59c-.04-.96-.19-1.69-.46-2.18-.27-.49-.65-.74-1.12-.74-.38,0-.7.17-.95.52s-.38.8-.38,1.38c.02.57.14.98.35,1.23.21.25.6.5,1.16.76.22.11.41.21.57.31.16.09.32.21.49.35s.31.28.43.43c.12.15.23.33.34.55s.2.45.27.71c.07.26.12.56.16.89.04.34.07.71.07,1.12,0,.96-.12,1.77-.37,2.42-.25.65-.57,1.11-.98,1.4s-.88.43-1.43.43c-.3,0-.59-.06-.87-.18-.28-.12-.54-.3-.79-.55s-.46-.56-.65-.92c-.19-.36-.34-.81-.47-1.35-.12-.53-.2-1.12-.22-1.77Z"/>
  <path d="M120.93,399.56h1.23l-1.22,14h-1.23l1.22-14Z"/>
  <path d="M126.01,405.99h3.19l-.65,7.58h-.99l.02-1.82c-.22.65-.51,1.16-.88,1.52-.36.36-.77.54-1.22.54-.86,0-1.54-.51-2.06-1.52s-.77-2.39-.77-4.15c0-1.3.08-2.48.24-3.54.16-1.06.39-1.99.7-2.78.31-.79.71-1.4,1.2-1.84.49-.44,1.04-.65,1.67-.65.71,0,1.32.39,1.83,1.16s.83,1.86.97,3.26l-1.28.61c-.18-2-.71-3-1.57-3-.37,0-.69.1-.95.3s-.49.54-.7,1.02c-.25.57-.45,1.37-.6,2.42-.15,1-.22,2.05-.22,3.13,0,1.02.11,1.82.33,2.4.13.37.33.66.58.86s.55.3.88.3c.53,0,.97-.32,1.33-.97s.61-1.54.75-2.69h-2.01l.19-2.14Z"/>
  <path d="M136.46,399.56l-1.23,14h-1.38l-1.41-7.38-.12-.69c-.26-1.41-.41-2.33-.47-2.76-.04.64-.09,1.34-.14,2.08l-.14,1.66-.61,7.1h-1.17l1.23-14h1.36l1.39,7.32c.24,1.33.45,2.57.62,3.74l.14-2.14.14-1.83.62-7.1h1.17Z"/>
  <path d="M137.95,399.56h4.66l-.18,2.08h-3.44l-.33,3.83h3.08l-.18,2.06h-3.08l-.35,3.96h3.45l-.18,2.08h-4.66l1.22-14Z"/>
  <path d="M147.98,411.58c0,.82.08,1.46.25,1.92v.06h-1.3c-.11-.44-.16-1.04-.16-1.82,0-.35.02-.83.05-1.45,0-.06,0-.14,0-.22s0-.15,0-.19c0-.05,0-.08,0-.11,0-.65-.1-1.1-.3-1.36-.2-.25-.52-.38-.97-.38h-1.29l-.48,5.52h-1.22l1.22-14h2.46c.73,0,1.31.29,1.76.86.46.55.69,1.53.69,2.92,0,1.03-.12,1.88-.35,2.55-.24.67-.58,1.14-1.02,1.42.47.44.7,1.28.7,2.5,0,.03,0,.24-.02.64-.03.48-.04.85-.04,1.13ZM147.5,403.47c0-.4-.03-.72-.1-.98s-.16-.45-.29-.58c-.13-.13-.28-.22-.43-.26s-.35-.07-.58-.07h-1.26l-.38,4.46h1.27c.59,0,1.03-.19,1.33-.56.3-.37.45-1.05.45-2.02Z"/>
  <path d="M149.29,416.15c.09-.76.19-1.59.28-2.5.1-.91.17-1.71.21-2.4h.93l.07.22c-.09.71-.21,1.48-.37,2.33-.16.85-.32,1.63-.48,2.35h-.64Z"/>
  <path d="M154.22,409.04l1.25-.36c.05,1.02.24,1.79.55,2.31s.72.79,1.24.79c.46,0,.82-.18,1.09-.54.26-.36.39-.88.39-1.56,0-.21-.03-.4-.05-.57s-.07-.31-.13-.44-.13-.24-.19-.33-.16-.18-.29-.27-.24-.17-.35-.23c-.1-.06-.26-.15-.45-.25-.05-.02-.15-.07-.31-.17-.24-.14-.44-.26-.6-.37-.16-.11-.33-.25-.5-.41-.17-.16-.31-.33-.41-.52-.11-.19-.21-.41-.29-.66s-.16-.55-.2-.88c-.04-.33-.07-.71-.07-1.13,0-.9.12-1.67.36-2.3s.55-1.1.94-1.4.83-.44,1.32-.44c.75,0,1.38.36,1.88,1.09.5.73.8,1.81.9,3.25l-1.24.59c-.04-.96-.19-1.69-.46-2.18-.27-.49-.65-.74-1.12-.74-.38,0-.7.17-.95.52s-.38.8-.38,1.38c.02.57.14.98.35,1.23.21.25.6.5,1.16.76.22.11.41.21.57.31.16.09.32.21.49.35s.31.28.43.43c.12.15.23.33.34.55s.2.45.27.71c.07.26.12.56.16.89.04.34.07.71.07,1.12,0,.96-.12,1.77-.37,2.42-.25.65-.57,1.11-.98,1.4s-.88.43-1.43.43c-.3,0-.59-.06-.87-.18-.28-.12-.54-.3-.79-.55s-.46-.56-.65-.92c-.19-.36-.34-.81-.47-1.35-.12-.53-.2-1.12-.22-1.77Z"/>
  <path d="M166.25,401.68h-2.22l-1.04,11.88h-1.23l1.03-11.88h-2.24l.19-2.12h5.69l-.19,2.12Z"/>
  <path d="M165.87,408.05c0-1.22.08-2.37.26-3.43.18-1.06.43-1.99.76-2.78s.74-1.41,1.24-1.86c.5-.45,1.05-.67,1.65-.65.9,0,1.61.54,2.13,1.61s.79,2.51.79,4.31c0,1.19-.09,2.3-.27,3.34s-.44,1.96-.77,2.73-.74,1.39-1.24,1.84-1.04.66-1.63.65c-.92,0-1.64-.5-2.15-1.49-.52-1-.78-2.42-.78-4.27ZM170.46,410.61c.3-.59.53-1.38.69-2.36.16-.98.24-2.03.24-3.15,0-1.19-.13-2.09-.39-2.69-.27-.7-.7-1.05-1.29-1.05-.66,0-1.19.37-1.57,1.11-.31.58-.54,1.4-.71,2.46-.16,1-.25,2.1-.25,3.28s.12,2.01.38,2.54c.28.7.73,1.04,1.34,1.04.65,0,1.18-.39,1.57-1.18Z"/>
  <path d="M178.57,411.58c0,.82.08,1.46.25,1.92v.06h-1.3c-.11-.44-.16-1.04-.16-1.82,0-.35.02-.83.05-1.45,0-.06,0-.14,0-.22,0-.08,0-.15,0-.19s0-.08,0-.11c0-.65-.1-1.1-.3-1.36s-.53-.38-.98-.38h-1.29l-.48,5.52h-1.22l1.22-14h2.46c.72,0,1.31.29,1.76.86.46.55.69,1.53.69,2.92,0,1.03-.12,1.88-.35,2.55s-.57,1.14-1.02,1.42c.47.44.7,1.28.7,2.5,0,.03,0,.24-.02.64-.03.48-.04.85-.04,1.13ZM178.09,403.47c0-.4-.03-.72-.1-.98s-.16-.45-.29-.58c-.13-.13-.28-.22-.43-.26s-.35-.07-.58-.07h-1.26l-.38,4.46h1.27c.59,0,1.03-.19,1.33-.56.3-.37.45-1.05.45-2.02Z"/>
  <path d="M182.38,407.75l-.5,5.82h-1.23l.51-5.86-1.71-8.14h1.35l.65,3.51c.15.79.3,1.65.45,2.58l.33-.94c.2-.61.39-1.18.58-1.7l1.25-3.45h1.46l-3.13,8.18Z"/>
  <path d="M191.21,401.68h-2.22l-1.04,11.88h-1.23l1.03-11.88h-2.24l.19-2.12h5.69l-.19,2.12Z"/>
  <path d="M192.23,399.56h4.66l-.18,2.08h-3.44l-.33,3.83h3.08l-.18,2.06h-3.08l-.35,3.96h3.45l-.18,2.08h-4.66l1.22-14Z"/>
  <path d="M201.7,411.45l-.18,2.12h-4.66l1.22-14h1.23l-1.04,11.88h3.44Z"/>
  <path d="M207.17,411.45l-.18,2.12h-4.66l1.22-14h1.23l-1.04,11.88h3.44Z"/>
  <path d="M209.01,399.56h4.66l-.18,2.08h-3.44l-.33,3.83h3.08l-.18,2.06h-3.08l-.35,3.96h3.45l-.18,2.08h-4.66l1.22-14Z"/>
  <path d="M219.05,411.58c0,.82.08,1.46.25,1.92v.06h-1.3c-.11-.44-.16-1.04-.16-1.82,0-.35.02-.83.05-1.45,0-.06,0-.14,0-.22s0-.15,0-.19c0-.05,0-.08,0-.11,0-.65-.1-1.1-.3-1.36-.2-.25-.52-.38-.97-.38h-1.29l-.48,5.52h-1.22l1.22-14h2.46c.73,0,1.31.29,1.76.86.46.55.69,1.53.69,2.92,0,1.03-.12,1.88-.35,2.55-.24.67-.58,1.14-1.02,1.42.47.44.7,1.28.7,2.5,0,.03,0,.24-.02.64-.03.48-.04.85-.04,1.13ZM218.57,403.47c0-.4-.03-.72-.1-.98s-.16-.45-.29-.58c-.13-.13-.28-.22-.43-.26s-.35-.07-.58-.07h-1.26l-.38,4.46h1.27c.59,0,1.03-.19,1.33-.56.3-.37.45-1.05.45-2.02Z"/>
  <path d="M220.36,416.15c.09-.76.19-1.59.28-2.5.1-.91.17-1.71.21-2.4h.93l.07.22c-.09.71-.21,1.48-.37,2.33-.16.85-.32,1.63-.48,2.35h-.64Z"/>
  <path d="M233.81,399.56l-1.22,14h-1.16l.71-8.22.06-.56c.04-.45.08-.9.13-1.34l.17-1.66h-.02c-.21.92-.48,2.09-.81,3.5l-.07.28-1.95,8h-1.32l-.57-8.06c0-.1-.04-.64-.1-1.6-.06-1.02-.1-1.73-.13-2.12h-.02s0,.13-.02.31c-.14,1.88-.22,2.98-.25,3.28l-.71,8.18h-1.16l1.22-14h1.87l.51,7.21c.13,1.82.21,3.24.24,4.24.18-.92.48-2.29.9-4.08l1.78-7.36h1.93Z"/>
  <path d="M235.32,399.56h1.23l-1.22,14h-1.23l1.22-14Z"/>
  <path d="M240.48,406.45l1.73,7.12h-1.4l-.7-3.1c-.05-.19-.14-.58-.27-1.18l-.23-1.08c-.17.49-.45,1.25-.84,2.27l-1.23,3.1h-1.52l2.98-7.34-1.6-6.66h1.36l.64,2.8c.07.31.22,1.02.44,2.14.18-.47.46-1.19.84-2.18l1.11-2.76h1.48l-2.8,6.88Z"/>
  <path d="M242.45,408.05c0-1.22.08-2.37.26-3.43.18-1.06.43-1.99.76-2.78s.74-1.41,1.24-1.86c.5-.45,1.05-.67,1.65-.65.9,0,1.61.54,2.13,1.61s.79,2.51.79,4.31c0,1.19-.09,2.3-.27,3.34s-.44,1.96-.77,2.73-.74,1.39-1.24,1.84-1.04.66-1.63.65c-.92,0-1.64-.5-2.15-1.49-.52-1-.78-2.42-.78-4.27ZM247.04,410.61c.3-.59.53-1.38.69-2.36.16-.98.24-2.03.24-3.15,0-1.19-.13-2.09-.39-2.69-.27-.7-.7-1.05-1.29-1.05-.66,0-1.19.37-1.57,1.11-.31.58-.54,1.4-.71,2.46-.16,1-.25,2.1-.25,3.28s.12,2.01.38,2.54c.28.7.73,1.04,1.34,1.04.65,0,1.18-.39,1.57-1.18Z"/>
  <path d="M254.59,411.45l-.18,2.12h-4.66l1.22-14h1.23l-1.04,11.88h3.44Z"/>
  <path d="M254.55,408.05c0-1.22.08-2.37.26-3.43.18-1.06.43-1.99.76-2.78s.74-1.41,1.24-1.86c.5-.45,1.05-.67,1.65-.65.9,0,1.61.54,2.13,1.61s.79,2.51.79,4.31c0,1.19-.09,2.3-.27,3.34s-.44,1.96-.77,2.73-.74,1.39-1.24,1.84-1.04.66-1.63.65c-.92,0-1.64-.5-2.15-1.49-.52-1-.78-2.42-.78-4.27ZM259.14,410.61c.3-.59.53-1.38.69-2.36.16-.98.24-2.03.24-3.15,0-1.19-.13-2.09-.39-2.69-.27-.7-.7-1.05-1.29-1.05-.66,0-1.19.37-1.57,1.11-.31.58-.54,1.4-.71,2.46-.16,1-.25,2.1-.25,3.28s.12,2.01.38,2.54c.28.7.73,1.04,1.34,1.04.65,0,1.18-.39,1.57-1.18Z"/>
  <path d="M265.41,405.99h3.19l-.65,7.58h-.99l.02-1.82c-.22.65-.51,1.16-.88,1.52-.37.36-.77.54-1.22.54-.86,0-1.54-.51-2.06-1.52s-.77-2.39-.77-4.15c0-1.3.08-2.48.24-3.54s.39-1.99.7-2.78.71-1.4,1.2-1.84,1.05-.65,1.67-.65c.71,0,1.32.39,1.83,1.16s.83,1.86.97,3.26l-1.28.61c-.18-2-.71-3-1.57-3-.37,0-.69.1-.94.3s-.49.54-.7,1.02c-.25.57-.45,1.37-.6,2.42-.14,1-.22,2.05-.22,3.13,0,1.02.11,1.82.33,2.4.13.37.32.66.58.86.26.2.55.3.88.3.53,0,.97-.32,1.33-.97s.61-1.54.75-2.69h-2.01l.19-2.14Z"/>
  <path d="M270.4,399.56h1.23l-1.22,14h-1.23l1.22-14Z"/>
  <path d="M271.83,409.04l1.25-.36c.05,1.02.24,1.79.55,2.31.31.53.72.79,1.24.79.46,0,.82-.18,1.09-.54s.4-.88.4-1.56c0-.21-.03-.4-.06-.57s-.07-.31-.13-.44-.12-.24-.19-.33-.16-.18-.29-.27-.24-.17-.35-.23c-.11-.06-.26-.15-.45-.25-.05-.02-.15-.07-.31-.17-.24-.14-.44-.26-.6-.37-.16-.11-.33-.25-.49-.41-.17-.16-.31-.33-.41-.52-.11-.19-.2-.41-.29-.66-.09-.25-.16-.55-.2-.88s-.07-.71-.08-1.13c0-.9.12-1.67.36-2.3.24-.63.55-1.1.94-1.4s.83-.44,1.32-.44c.75,0,1.38.36,1.88,1.09s.8,1.81.9,3.25l-1.24.59c-.04-.96-.2-1.69-.47-2.18s-.65-.74-1.12-.74c-.38,0-.7.17-.95.52-.25.35-.38.8-.38,1.38.02.57.14.98.35,1.23.22.25.6.5,1.16.76.22.11.41.21.57.31s.32.21.5.35c.17.14.31.28.43.43s.23.33.34.55c.11.21.2.45.27.71.07.26.12.56.16.89s.07.71.07,1.12c0,.96-.12,1.77-.37,2.42s-.57,1.11-.98,1.4c-.4.29-.88.43-1.42.43-.3,0-.59-.06-.87-.18s-.54-.3-.79-.55-.47-.56-.65-.92c-.19-.36-.35-.81-.47-1.35-.12-.53-.2-1.12-.22-1.77Z"/>
  <path d="M283.85,401.68h-2.22l-1.04,11.88h-1.23l1.03-11.88h-2.24l.19-2.12h5.69l-.19,2.12Z"/>
  <path d="M288.59,413.77c-.68,0-1.22-.34-1.62-1.02-.4-.68-.6-1.65-.6-2.9,0-1.03.14-1.85.41-2.47.28-.62.65-1.2,1.11-1.73-.21-.48-.41-.99-.59-1.54-.18-.55-.27-1.19-.27-1.92,0-.99.16-1.75.49-2.3.33-.55.77-.82,1.33-.82.53,0,.95.27,1.25.81s.46,1.3.46,2.27c0,.84-.13,1.55-.4,2.14-.27.59-.61,1.12-1.01,1.6l1.91,3.72c.17-.41.31-.89.42-1.43.11-.54.2-1.12.27-1.75h.88c-.11.85-.24,1.65-.4,2.38s-.36,1.37-.61,1.92l1.45,2.84h-1.18l-.86-1.68c-.31.56-.66,1.01-1.04,1.36-.38.35-.85.52-1.39.52ZM288.62,412.21c.42,0,.79-.14,1.09-.42.3-.28.56-.61.76-1l-2.06-4.04c-.36.43-.63.86-.84,1.3s-.3,1.02-.3,1.74.12,1.32.37,1.76.57.66.98.66ZM288.61,404.85c.39-.45.67-.88.84-1.29s.25-.88.25-1.41c0-.48-.08-.87-.24-1.18-.16-.31-.37-.46-.64-.46s-.5.15-.68.44c-.18.29-.26.7-.26,1.22,0,.48.06.92.19,1.33.12.41.31.86.54,1.35Z"/>
  <path d="M295.76,409.04l1.25-.36c.05,1.02.24,1.79.55,2.31.31.53.72.79,1.24.79.46,0,.82-.18,1.09-.54s.4-.88.4-1.56c0-.21-.03-.4-.06-.57s-.07-.31-.13-.44-.12-.24-.19-.33-.16-.18-.29-.27-.24-.17-.35-.23c-.11-.06-.26-.15-.45-.25-.05-.02-.15-.07-.31-.17-.24-.14-.44-.26-.6-.37-.16-.11-.33-.25-.49-.41-.17-.16-.31-.33-.41-.52-.11-.19-.2-.41-.29-.66-.09-.25-.16-.55-.2-.88s-.07-.71-.08-1.13c0-.9.12-1.67.36-2.3.24-.63.55-1.1.94-1.4s.83-.44,1.32-.44c.75,0,1.38.36,1.88,1.09s.8,1.81.9,3.25l-1.24.59c-.04-.96-.2-1.69-.47-2.18s-.65-.74-1.12-.74c-.38,0-.7.17-.95.52-.25.35-.38.8-.38,1.38.02.57.14.98.35,1.23.22.25.6.5,1.16.76.22.11.41.21.57.31s.32.21.5.35c.17.14.31.28.43.43s.23.33.34.55c.11.21.2.45.27.71.07.26.12.56.16.89s.07.71.07,1.12c0,.96-.12,1.77-.37,2.42s-.57,1.11-.98,1.4c-.4.29-.88.43-1.42.43-.3,0-.59-.06-.87-.18s-.54-.3-.79-.55-.47-.56-.65-.92c-.19-.36-.35-.81-.47-1.35-.12-.53-.2-1.12-.22-1.77Z"/>
  <path d="M307.79,401.68h-2.22l-1.04,11.88h-1.23l1.03-11.88h-2.24l.19-2.12h5.69l-.19,2.12Z"/>
  <path d="M313,411.58c0,.82.08,1.46.25,1.92v.06h-1.3c-.11-.44-.16-1.04-.16-1.82,0-.35.02-.83.05-1.45,0-.06,0-.14,0-.22,0-.08,0-.15,0-.19s0-.08,0-.11c0-.65-.1-1.1-.3-1.36s-.53-.38-.98-.38h-1.29l-.48,5.52h-1.22l1.22-14h2.46c.72,0,1.31.29,1.76.86.46.55.69,1.53.69,2.92,0,1.03-.12,1.88-.35,2.55s-.57,1.14-1.02,1.42c.47.44.7,1.28.7,2.5,0,.03,0,.24-.02.64-.03.48-.04.85-.04,1.13ZM312.52,403.47c0-.4-.03-.72-.1-.98s-.16-.45-.29-.58c-.13-.13-.28-.22-.43-.26s-.35-.07-.58-.07h-1.26l-.38,4.46h1.27c.59,0,1.03-.19,1.33-.56.3-.37.45-1.05.45-2.02Z"/>
  <path d="M318.44,409.88h-2.67l-.94,3.68h-1.33l3.84-14h1.29l1.4,14h-1.26l-.32-3.68ZM318.27,407.79l-.29-3.38-.02-.28c-.09-1.12-.15-1.87-.17-2.24h0c-.15.67-.35,1.51-.61,2.52l-.87,3.38h1.96Z"/>
  <path d="M325.4,401.68h-2.22l-1.04,11.88h-1.23l1.03-11.88h-2.24l.19-2.12h5.69l-.19,2.12Z"/>
  <path d="M326.42,399.56h4.66l-.18,2.08h-3.44l-.33,3.83h3.08l-.18,2.06h-3.08l-.35,3.96h3.45l-.18,2.08h-4.66l1.22-14Z"/>
  <path d="M334.35,405.99h3.19l-.65,7.58h-.99l.02-1.82c-.22.65-.51,1.16-.88,1.52-.36.36-.77.54-1.22.54-.86,0-1.54-.51-2.06-1.52s-.77-2.39-.77-4.15c0-1.3.08-2.48.24-3.54.16-1.06.39-1.99.7-2.78.31-.79.71-1.4,1.2-1.84.49-.44,1.04-.65,1.67-.65.71,0,1.32.39,1.83,1.16s.83,1.86.97,3.26l-1.28.61c-.18-2-.71-3-1.57-3-.37,0-.69.1-.95.3s-.49.54-.7,1.02c-.25.57-.45,1.37-.6,2.42-.15,1-.22,2.05-.22,3.13,0,1.02.11,1.82.33,2.4.13.37.33.66.58.86s.55.3.88.3c.53,0,.97-.32,1.33-.97s.61-1.54.75-2.69h-2.01l.19-2.14Z"/>
  <path d="M339.34,399.56h1.23l-1.22,14h-1.23l1.22-14Z"/>
  <path d="M340.76,409.04l1.25-.36c.05,1.02.24,1.79.55,2.31s.72.79,1.24.79c.46,0,.82-.18,1.09-.54.26-.36.39-.88.39-1.56,0-.21-.03-.4-.05-.57s-.07-.31-.13-.44-.13-.24-.19-.33-.16-.18-.29-.27-.24-.17-.35-.23c-.1-.06-.26-.15-.45-.25-.05-.02-.15-.07-.31-.17-.24-.14-.44-.26-.6-.37-.16-.11-.33-.25-.5-.41-.17-.16-.31-.33-.41-.52-.11-.19-.21-.41-.29-.66s-.16-.55-.2-.88c-.04-.33-.07-.71-.07-1.13,0-.9.12-1.67.36-2.3s.55-1.1.94-1.4.83-.44,1.32-.44c.75,0,1.38.36,1.88,1.09.5.73.8,1.81.9,3.25l-1.24.59c-.04-.96-.19-1.69-.46-2.18-.27-.49-.65-.74-1.12-.74-.38,0-.7.17-.95.52s-.38.8-.38,1.38c.02.57.14.98.35,1.23.21.25.6.5,1.16.76.22.11.41.21.57.31.16.09.32.21.49.35s.31.28.43.43c.12.15.23.33.34.55s.2.45.27.71c.07.26.12.56.16.89.04.34.07.71.07,1.12,0,.96-.12,1.77-.37,2.42-.25.65-.57,1.11-.98,1.4s-.88.43-1.43.43c-.3,0-.59-.06-.87-.18-.28-.12-.54-.3-.79-.55s-.46-.56-.65-.92c-.19-.36-.34-.81-.47-1.35-.12-.53-.2-1.12-.22-1.77Z"/>
  <path d="M352.79,401.68h-2.22l-1.04,11.88h-1.23l1.03-11.88h-2.24l.19-2.12h5.69l-.19,2.12Z"/>
  <path d="M24.69,428.57c0,1.28-.34,2.29-1.03,3.05-.69.76-1.57,1.14-2.65,1.14s-1.95-.46-2.53-1.37v1.17h-1.44v-11.2h1.44v4.24c.6-.83,1.46-1.25,2.58-1.25s1.96.39,2.63,1.16c.67.77,1,1.79,1,3.05ZM23.1,428.57c0-1.04-.19-1.81-.56-2.31-.38-.5-.98-.76-1.82-.76-.88,0-1.49.29-1.8.86-.32.58-.48,1.33-.48,2.23,0,2.05.77,3.07,2.32,3.07.87,0,1.47-.26,1.82-.77.35-.51.53-1.29.53-2.32Z"/>
  <path d="M32.62,424.57l-3.27,8.73c-.35.94-.7,1.6-1.03,1.98-.33.38-.77.57-1.3.57-.45,0-.85-.05-1.22-.16l.04-1.34c.37.12.7.18.99.18.3-.04.52-.17.66-.39s.39-.76.73-1.63l-3.12-7.94h1.54l1.52,4.32.2.66.5,1.47.72-2.12,1.53-4.32h1.51Z"/>
  <path d="M45.42,428.57c0,1.26-.33,2.27-1,3.04-.67.77-1.54,1.16-2.63,1.16s-1.99-.41-2.58-1.23v4.24h-1.44v-11.2h1.44v1.17c.58-.91,1.42-1.37,2.53-1.37s1.96.38,2.65,1.14c.69.76,1.03,1.78,1.03,3.05ZM43.28,430.86c.37-.49.55-1.26.55-2.3s-.18-1.8-.53-2.3-.96-.75-1.82-.75c-.77,0-1.34.26-1.73.77-.39.51-.59,1.27-.59,2.27,0,.91.16,1.64.48,2.21.32.56.92.84,1.8.84s1.46-.25,1.83-.74Z"/>
  <path d="M51.53,424.37l-.04,1.37c-.06-.02-.18-.02-.37-.02-.43,0-.8.04-1.11.13-.3.09-.57.24-.81.46-.24.22-.41.53-.53.94-.12.41-.18.92-.18,1.53v3.79h-1.44v-8h1.44v1.41c.12-.4.4-.75.87-1.06.46-.3,1.01-.48,1.63-.53.05,0,.23-.02.53-.02Z"/>
  <path d="M59.5,432.57c-.24.04-.54.06-.9.06-.88,0-1.36-.42-1.44-1.25-.45.92-1.34,1.38-2.69,1.38-.75,0-1.38-.2-1.91-.61-.52-.41-.78-.97-.78-1.7,0-.32.05-.6.15-.86.1-.25.23-.47.39-.64.16-.17.37-.32.61-.45.25-.13.49-.23.73-.31.25-.08.52-.14.84-.2l2.64-.51c0-.42-.02-.73-.05-.94-.03-.2-.11-.38-.22-.52-.1-.16-.29-.29-.54-.38s-.56-.14-.91-.14c-.69,0-1.19.14-1.5.41-.3.27-.46.71-.46,1.32l-1.41-.2c.05-.99.38-1.69.99-2.08.6-.4,1.41-.59,2.45-.59s1.76.22,2.27.67c.51.45.77,1.1.77,1.97v3.83c0,.25.03.41.08.49.05.08.18.12.39.12.12,0,.28-.02.46-.07l.03,1.19ZM57.15,428.57l-2.41.53c-.52.12-.9.27-1.13.45-.23.18-.35.48-.35.89,0,.35.14.64.41.85s.62.32,1.04.32c.81,0,1.42-.18,1.83-.55.41-.37.62-.87.62-1.51v-.98Z"/>
  <path d="M60.36,428.57c0-1.24.36-2.25,1.09-3.03.73-.78,1.69-1.16,2.88-1.16.95,0,1.73.25,2.34.76s1,1.17,1.16,1.98l-1.34.25c-.17-.6-.41-1.05-.75-1.37-.33-.31-.8-.47-1.41-.47-.46,0-.85.07-1.17.2-.31.14-.56.34-.74.62-.18.28-.3.59-.38.95-.07.35-.11.78-.11,1.27s.04.93.11,1.29c.07.36.2.67.38.95.18.27.42.48.74.61.32.13.71.2,1.17.2.62,0,1.09-.13,1.43-.38.34-.25.59-.67.74-1.25l1.36.15c-.14.81-.54,1.45-1.17,1.93-.63.48-1.42.71-2.36.71-1.23,0-2.2-.37-2.91-1.11-.71-.74-1.06-1.77-1.06-3.08Z"/>
  <path d="M69.78,430.78v-5.01h-1.16v-1.2h1.16v-2.23h1.42v2.23h1.63v1.2h-1.63v4.95c0,.25.06.42.17.5.12.08.33.12.66.12.15,0,.4-.03.73-.08l.04,1.3c-.39.05-.68.08-.88.08-.74,0-1.29-.15-1.63-.45-.34-.3-.51-.77-.51-1.42Z"/>
  <path d="M74.24,421.36h1.44v1.7h-1.44v-1.7ZM74.24,424.57h1.44v8h-1.44v-8Z"/>
  <path d="M77.31,428.57c0-1.24.36-2.25,1.09-3.03.73-.78,1.69-1.16,2.88-1.16.95,0,1.73.25,2.34.76s1,1.17,1.16,1.98l-1.34.25c-.17-.6-.41-1.05-.75-1.37-.33-.31-.8-.47-1.41-.47-.46,0-.85.07-1.17.2-.31.14-.56.34-.74.62-.18.28-.3.59-.38.95-.07.35-.11.78-.11,1.27s.04.93.11,1.29c.07.36.2.67.38.95.18.27.42.48.74.61.32.13.71.2,1.17.2.62,0,1.09-.13,1.43-.38.34-.25.59-.67.74-1.25l1.36.15c-.14.81-.54,1.45-1.17,1.93-.63.48-1.42.71-2.36.71-1.23,0-2.2-.37-2.91-1.11-.71-.74-1.06-1.77-1.06-3.08Z"/>
  <path d="M93.46,428.66c0,.17,0,.28-.02.34h-6.07c.02.89.22,1.54.59,1.97.38.43.94.64,1.68.64.68,0,1.21-.15,1.58-.44.37-.29.61-.74.71-1.35l1.39.11c-.18.93-.58,1.64-1.2,2.12-.62.48-1.44.72-2.46.72-1.24,0-2.2-.39-2.88-1.17-.65-.71-.98-1.73-.98-3.04,0-1.22.34-2.21,1.01-2.98.72-.8,1.67-1.2,2.83-1.2.65,0,1.26.14,1.82.41.56.28,1,.67,1.31,1.17.46.73.69,1.64.69,2.7ZM87.78,426.41c-.23.41-.36.89-.38,1.42h4.57c0-.23-.05-.49-.13-.75-.07-.27-.18-.49-.3-.67-.38-.58-1.01-.87-1.88-.87-.44,0-.82.08-1.15.23-.33.15-.57.37-.73.64Z"/>
  <path d="M96.15,432.79c-.27,0-.5-.09-.69-.26-.19-.17-.29-.45-.29-.83s.1-.67.29-.83c.19-.16.42-.24.69-.24s.51.08.71.24c.2.16.3.44.3.83s-.1.66-.3.83c-.2.17-.43.26-.71.26Z"/>
  <path d="M103.63,421.36h3.8c1.66,0,2.96.51,3.9,1.52.94,1.01,1.41,2.37,1.41,4.08s-.47,3.12-1.41,4.11c-.94.99-2.24,1.49-3.9,1.49h-3.8v-11.2ZM107.28,431.32c.72,0,1.35-.1,1.87-.31.52-.21.91-.5,1.17-.87.28-.41.48-.86.61-1.35s.19-1.1.19-1.82-.06-1.32-.19-1.8-.33-.93-.61-1.34c-.27-.38-.66-.68-1.19-.89-.53-.21-1.14-.31-1.85-.31h-2.21v8.7h2.21Z"/>
  <path d="M114.48,421.36h1.44v1.7h-1.44v-1.7ZM114.48,424.57h1.44v8h-1.44v-8Z"/>
  <path d="M117.52,429.94l1.31-.12c0,.56.18,1,.55,1.32.36.32.86.48,1.5.48,1.31,0,1.97-.43,1.97-1.3-.03-.34-.22-.59-.55-.76-.2-.1-.66-.23-1.38-.41l-.64-.15c-.37-.1-.66-.18-.88-.26-.22-.07-.44-.17-.68-.29-.24-.12-.42-.26-.54-.4-.12-.15-.23-.33-.32-.56-.09-.23-.14-.49-.16-.79,0-.51.14-.95.43-1.31.29-.36.65-.62,1.09-.79.43-.16.91-.24,1.44-.24.97,0,1.76.22,2.35.65.59.43.92,1.09.99,1.98l-1.34.21c-.01-.54-.19-.96-.54-1.25-.35-.29-.84-.44-1.48-.44-.43,0-.8.1-1.12.3-.32.2-.48.47-.48.8.04.32.19.56.47.7.28.15.76.3,1.45.45l.2.05c.74.15,1.3.3,1.68.45.37.15.69.37.96.67.28.31.42.75.42,1.31,0,.89-.32,1.54-.95,1.94-.63.39-1.41.58-2.35.58-.65,0-1.22-.1-1.71-.29-.5-.2-.9-.51-1.21-.94-.31-.43-.46-.96-.46-1.59Z"/>
  <path d="M125.31,429.94l1.31-.12c0,.56.18,1,.55,1.32.36.32.86.48,1.5.48,1.31,0,1.97-.43,1.97-1.3-.03-.34-.22-.59-.55-.76-.2-.1-.66-.23-1.38-.41l-.64-.15c-.37-.1-.66-.18-.88-.26-.22-.07-.44-.17-.68-.29-.24-.12-.42-.26-.54-.4-.12-.15-.23-.33-.32-.56-.09-.23-.14-.49-.16-.79,0-.51.14-.95.43-1.31.29-.36.65-.62,1.09-.79.43-.16.91-.24,1.44-.24.97,0,1.76.22,2.35.65.59.43.92,1.09.99,1.98l-1.34.21c-.01-.54-.19-.96-.54-1.25-.35-.29-.84-.44-1.48-.44-.43,0-.8.1-1.12.3-.32.2-.48.47-.48.8.04.32.19.56.47.7.28.15.76.3,1.45.45l.2.05c.74.15,1.3.3,1.68.45.37.15.69.37.96.67.28.31.42.75.42,1.31,0,.89-.32,1.54-.95,1.94-.63.39-1.41.58-2.35.58-.65,0-1.22-.1-1.71-.29-.5-.2-.9-.51-1.21-.94-.31-.43-.46-.96-.46-1.59Z"/>
  <path d="M140.79,428.66c0,.17,0,.28-.02.34h-6.07c.02.89.22,1.54.59,1.97.38.43.93.64,1.68.64.68,0,1.21-.15,1.58-.44.37-.29.61-.74.71-1.35l1.39.11c-.18.93-.58,1.64-1.2,2.12-.62.48-1.44.72-2.46.72-1.25,0-2.2-.39-2.88-1.17-.65-.71-.98-1.73-.98-3.04,0-1.22.34-2.21,1.01-2.98.72-.8,1.67-1.2,2.83-1.2.65,0,1.26.14,1.82.41.56.28,1,.67,1.31,1.17.46.73.69,1.64.69,2.7ZM135.11,426.41c-.23.41-.36.89-.38,1.42h4.57c-.01-.23-.05-.49-.13-.75-.08-.27-.18-.49-.3-.67-.39-.58-1.01-.87-1.88-.87-.44,0-.82.08-1.15.23-.33.15-.57.37-.73.64Z"/>
  <path d="M141.92,428.57c0-1.24.36-2.25,1.09-3.03.73-.78,1.69-1.16,2.88-1.16.95,0,1.73.25,2.34.76s1,1.17,1.16,1.98l-1.34.25c-.17-.6-.42-1.05-.75-1.37-.33-.31-.8-.47-1.41-.47-.46,0-.85.07-1.17.2-.32.14-.56.34-.74.62-.18.28-.3.59-.38.95-.07.35-.11.78-.11,1.27s.04.93.11,1.29c.07.36.2.67.38.95.18.27.42.48.74.61.31.13.7.2,1.17.2.61,0,1.09-.13,1.43-.38.34-.25.59-.67.74-1.25l1.36.15c-.15.81-.54,1.45-1.17,1.93-.64.48-1.42.71-2.36.71-1.23,0-2.2-.37-2.91-1.11-.71-.74-1.06-1.77-1.06-3.08Z"/>
  <path d="M151.35,430.78v-5.01h-1.16v-1.2h1.16v-2.23h1.42v2.23h1.63v1.2h-1.63v4.95c0,.25.06.42.17.5.11.08.33.12.66.12.15,0,.39-.03.73-.08l.04,1.3c-.39.05-.69.08-.88.08-.75,0-1.29-.15-1.63-.45-.34-.3-.51-.77-.51-1.42Z"/>
  <path d="M155.8,421.36h1.44v1.7h-1.44v-1.7ZM155.8,424.57h1.44v8h-1.44v-8Z"/>
  <path d="M166.26,427.82v4.75h-1.49v-4.67c0-.53-.03-.91-.08-1.15-.05-.23-.19-.47-.4-.71-.19-.19-.39-.31-.6-.37-.21-.06-.49-.09-.82-.09-.54,0-1.02.18-1.45.55-.43.35-.64,1.03-.64,2.03v4.41h-1.44v-8h1.44v1.23c.42-.95,1.24-1.43,2.47-1.43,1.04,0,1.83.3,2.38.9.27.31.44.65.52,1.02.07.37.11.88.11,1.52Z"/>
  <path d="M175.46,424.57v7.82c0,1.06-.35,1.91-1.04,2.53-.69.62-1.63.93-2.8.93-.36,0-.69-.03-1.01-.09-.32-.06-.62-.16-.91-.3s-.54-.31-.75-.52c-.21-.21-.39-.46-.52-.77s-.21-.65-.21-1.02l1.38-.1c.03.6.22,1.03.58,1.29.36.26.89.39,1.61.39.67,0,1.21-.2,1.62-.59.41-.39.61-.94.61-1.65v-1.36c-.58.92-1.42,1.38-2.52,1.38s-1.98-.38-2.66-1.14c-.67-.76-1.01-1.76-1.01-3.01s.34-2.14,1.01-2.88c.67-.74,1.54-1.11,2.61-1.11,1.14,0,2,.44,2.57,1.31v-1.12h1.45ZM174.08,428.36c0-.93-.2-1.64-.59-2.11-.4-.48-.98-.71-1.74-.71-.83,0-1.44.23-1.8.7-.37.47-.55,1.18-.55,2.13,0,1.02.17,1.78.52,2.26.34.49.95.73,1.8.73s1.45-.28,1.81-.84c.38-.59.56-1.3.56-2.15Z"/>
  <path d="M180.63,429.94l1.31-.12c0,.56.18,1,.55,1.32.36.32.86.48,1.5.48,1.31,0,1.97-.43,1.97-1.3-.03-.34-.22-.59-.55-.76-.2-.1-.66-.23-1.38-.41l-.64-.15c-.37-.1-.66-.18-.88-.26-.22-.07-.44-.17-.68-.29-.24-.12-.42-.26-.54-.4-.12-.15-.23-.33-.32-.56-.09-.23-.14-.49-.16-.79,0-.51.14-.95.43-1.31.29-.36.65-.62,1.09-.79.43-.16.91-.24,1.44-.24.97,0,1.76.22,2.35.65.59.43.92,1.09.99,1.98l-1.34.21c-.01-.54-.19-.96-.54-1.25-.35-.29-.84-.44-1.48-.44-.43,0-.8.1-1.12.3-.32.2-.48.47-.48.8.04.32.19.56.47.7.28.15.76.3,1.45.45l.2.05c.74.15,1.3.3,1.68.45.37.15.69.37.96.67.28.31.42.75.42,1.31,0,.89-.32,1.54-.95,1.94-.63.39-1.41.58-2.35.58-.65,0-1.22-.1-1.71-.29-.5-.2-.9-.51-1.21-.94-.31-.43-.46-.96-.46-1.59Z"/>
  <path d="M195.21,424.57l-3.27,8.73c-.36.94-.7,1.6-1.03,1.98-.33.38-.77.57-1.3.57-.45,0-.86-.05-1.22-.16l.04-1.34c.37.12.7.18.99.18.3-.04.52-.17.66-.39s.38-.76.73-1.63l-3.12-7.94h1.54l1.52,4.32.2.66.5,1.47.72-2.12,1.53-4.32h1.51Z"/>
  <path d="M195.56,429.94l1.31-.12c0,.56.18,1,.55,1.32.36.32.86.48,1.5.48,1.31,0,1.97-.43,1.97-1.3-.03-.34-.22-.59-.55-.76-.2-.1-.66-.23-1.38-.41l-.64-.15c-.37-.1-.66-.18-.88-.26-.22-.07-.44-.17-.68-.29-.24-.12-.42-.26-.54-.4-.12-.15-.23-.33-.32-.56-.09-.23-.14-.49-.16-.79,0-.51.14-.95.43-1.31.29-.36.65-.62,1.09-.79.43-.16.91-.24,1.44-.24.97,0,1.76.22,2.35.65.59.43.92,1.09.99,1.98l-1.34.21c-.01-.54-.19-.96-.54-1.25-.35-.29-.84-.44-1.48-.44-.43,0-.8.1-1.12.3-.32.2-.48.47-.48.8.04.32.19.56.47.7.28.15.76.3,1.45.45l.2.05c.74.15,1.3.3,1.68.45.37.15.69.37.96.67.28.31.42.75.42,1.31,0,.89-.32,1.54-.95,1.94-.63.39-1.41.58-2.35.58-.65,0-1.22-.1-1.71-.29-.5-.2-.9-.51-1.21-.94-.31-.43-.46-.96-.46-1.59Z"/>
  <path d="M204.16,430.78v-5.01h-1.16v-1.2h1.16v-2.23h1.42v2.23h1.63v1.2h-1.63v4.95c0,.25.06.42.17.5.11.08.33.12.66.12.15,0,.39-.03.73-.08l.04,1.3c-.39.05-.69.08-.88.08-.75,0-1.29-.15-1.63-.45-.34-.3-.51-.77-.51-1.42Z"/>
  <path d="M215.57,428.66c0,.17,0,.28-.02.34h-6.07c.02.89.22,1.54.59,1.97.38.43.93.64,1.68.64.68,0,1.21-.15,1.58-.44.37-.29.61-.74.71-1.35l1.39.11c-.18.93-.58,1.64-1.2,2.12-.62.48-1.44.72-2.46.72-1.25,0-2.2-.39-2.88-1.17-.65-.71-.98-1.73-.98-3.04,0-1.22.34-2.21,1.01-2.98.72-.8,1.67-1.2,2.83-1.2.65,0,1.26.14,1.82.41.56.28,1,.67,1.31,1.17.46.73.69,1.64.69,2.7ZM209.89,426.41c-.23.41-.36.89-.38,1.42h4.57c-.01-.23-.05-.49-.13-.75-.08-.27-.18-.49-.3-.67-.39-.58-1.01-.87-1.88-.87-.44,0-.82.08-1.15.23-.33.15-.57.37-.73.64Z"/>
  <path d="M229.04,427.38v5.19h-1.48v-4.7c0-.53-.03-.92-.08-1.16-.05-.24-.19-.48-.4-.7-.3-.3-.75-.45-1.34-.45-.47,0-.87.14-1.19.43-.25.21-.43.49-.55.82-.12.33-.18.78-.18,1.34v4.41h-1.47v-4.7c0-.53-.03-.91-.08-1.16-.05-.24-.19-.48-.4-.7-.3-.3-.75-.45-1.34-.45-.45,0-.85.14-1.18.43-.5.44-.74,1.16-.74,2.16v4.41h-1.42v-8h1.42v1.22c.1-.3.3-.56.59-.8.5-.41,1.12-.61,1.88-.61.63,0,1.17.15,1.61.44.44.29.76.71.95,1.26.18-.43.43-.79.77-1.09.47-.41,1.1-.61,1.87-.61.9,0,1.59.26,2.06.77.47.51.71,1.26.71,2.24Z"/>
  <path d="M230.56,429.94l1.31-.12c0,.56.18,1,.55,1.32.36.32.86.48,1.5.48,1.31,0,1.97-.43,1.97-1.3-.03-.34-.22-.59-.55-.76-.2-.1-.66-.23-1.38-.41l-.64-.15c-.37-.1-.66-.18-.88-.26-.22-.07-.44-.17-.68-.29-.24-.12-.42-.26-.54-.4-.12-.15-.23-.33-.32-.56-.09-.23-.14-.49-.16-.79,0-.51.14-.95.43-1.31.29-.36.65-.62,1.09-.79.43-.16.91-.24,1.44-.24.97,0,1.76.22,2.35.65.59.43.92,1.09.99,1.98l-1.34.21c-.01-.54-.19-.96-.54-1.25-.35-.29-.84-.44-1.48-.44-.43,0-.8.1-1.12.3-.32.2-.48.47-.48.8.04.32.19.56.47.7.28.15.76.3,1.45.45l.2.05c.74.15,1.3.3,1.68.45.37.15.69.37.96.67.28.31.42.75.42,1.31,0,.89-.32,1.54-.95,1.94-.63.39-1.41.58-2.35.58-.65,0-1.22-.1-1.71-.29-.5-.2-.9-.51-1.21-.94-.31-.43-.46-.96-.46-1.59Z"/>
  <path d="M242.88,430.78v-5.01h-1.16v-1.2h1.16v-2.23h1.42v2.23h1.63v1.2h-1.63v4.95c0,.25.06.42.17.5.11.08.33.12.66.12.15,0,.39-.03.73-.08l.04,1.3c-.39.05-.69.08-.88.08-.75,0-1.29-.15-1.63-.45-.34-.3-.51-.77-.51-1.42Z"/>
  <path d="M246.63,428.57c0-1.24.36-2.25,1.09-3.03.73-.78,1.7-1.17,2.91-1.17s2.15.39,2.89,1.18c.73.78,1.1,1.79,1.1,3.02s-.37,2.27-1.1,3.04c-.73.77-1.7,1.16-2.89,1.16s-2.22-.37-2.93-1.12c-.71-.74-1.07-1.77-1.07-3.08ZM252.48,430.86c.39-.51.58-1.27.58-2.29s-.2-1.78-.58-2.29c-.39-.51-1-.77-1.85-.77s-1.48.25-1.87.76-.59,1.27-.59,2.29.19,1.79.58,2.3c.38.51,1.01.76,1.88.76s1.46-.25,1.85-.77Z"/>
  <path d="M260.28,430.78v-5.01h-1.16v-1.2h1.16v-2.23h1.42v2.23h1.63v1.2h-1.63v4.95c0,.25.06.42.17.5.11.08.33.12.66.12.15,0,.39-.03.73-.08l.04,1.3c-.39.05-.69.08-.88.08-.75,0-1.29-.15-1.63-.45-.34-.3-.51-.77-.51-1.42Z"/>
  <path d="M271.69,428.66c0,.17,0,.28-.02.34h-6.07c.02.89.22,1.54.59,1.97.38.43.93.64,1.68.64.68,0,1.21-.15,1.58-.44.37-.29.61-.74.71-1.35l1.39.11c-.18.93-.58,1.64-1.2,2.12-.62.48-1.44.72-2.46.72-1.25,0-2.2-.39-2.88-1.17-.65-.71-.98-1.73-.98-3.04,0-1.22.34-2.21,1.01-2.98.72-.8,1.67-1.2,2.83-1.2.65,0,1.26.14,1.82.41.56.28,1,.67,1.31,1.17.46.73.69,1.64.69,2.7ZM266.01,426.41c-.23.41-.36.89-.38,1.42h4.57c-.01-.23-.05-.49-.13-.75-.08-.27-.18-.49-.3-.67-.39-.58-1.01-.87-1.88-.87-.44,0-.82.08-1.15.23-.33.15-.57.37-.73.64Z"/>
  <path d="M273.3,421.36h1.44v11.2h-1.44v-11.2Z"/>
  <path d="M276.85,421.36h1.44v11.2h-1.44v-11.2Z"/>
  <path d="M283.46,429.94l1.31-.12c0,.56.18,1,.55,1.32.36.32.86.48,1.5.48,1.31,0,1.97-.43,1.97-1.3-.03-.34-.22-.59-.55-.76-.2-.1-.66-.23-1.38-.41l-.64-.15c-.37-.1-.66-.18-.88-.26-.22-.07-.44-.17-.68-.29-.24-.12-.42-.26-.54-.4-.12-.15-.23-.33-.32-.56-.09-.23-.14-.49-.16-.79,0-.51.14-.95.43-1.31.29-.36.65-.62,1.09-.79.43-.16.91-.24,1.44-.24.97,0,1.76.22,2.35.65.59.43.92,1.09.99,1.98l-1.34.21c-.01-.54-.19-.96-.54-1.25-.35-.29-.84-.44-1.48-.44-.43,0-.8.1-1.12.3-.32.2-.48.47-.48.8.04.32.19.56.47.7.28.15.76.3,1.45.45l.2.05c.74.15,1.3.3,1.68.45.37.15.69.37.96.67.28.31.42.75.42,1.31,0,.89-.32,1.54-.95,1.94-.63.39-1.41.58-2.35.58-.65,0-1.22-.1-1.71-.29-.5-.2-.9-.51-1.21-.94-.31-.43-.46-.96-.46-1.59Z"/>
  <path d="M292.06,430.78v-5.01h-1.16v-1.2h1.16v-2.23h1.42v2.23h1.63v1.2h-1.63v4.95c0,.25.06.42.17.5.11.08.33.12.66.12.15,0,.39-.03.73-.08l.04,1.3c-.39.05-.69.08-.88.08-.75,0-1.29-.15-1.63-.45-.34-.3-.51-.77-.51-1.42Z"/>
  <path d="M295.81,428.57c0-1.24.36-2.25,1.09-3.03.73-.78,1.7-1.17,2.91-1.17s2.15.39,2.89,1.18c.73.78,1.1,1.79,1.1,3.02s-.37,2.27-1.1,3.04c-.73.77-1.7,1.16-2.89,1.16s-2.22-.37-2.93-1.12c-.71-.74-1.07-1.77-1.07-3.08ZM301.65,430.86c.39-.51.58-1.27.58-2.29s-.2-1.78-.58-2.29c-.39-.51-1-.77-1.85-.77s-1.48.25-1.87.76-.59,1.27-.59,2.29.19,1.79.58,2.3c.38.51,1.01.76,1.88.76s1.46-.25,1.85-.77Z"/>
  <path d="M309.88,424.37l-.04,1.37c-.06-.02-.19-.02-.37-.02-.43,0-.8.04-1.11.13-.3.09-.58.24-.81.46-.24.22-.41.53-.53.94-.12.41-.18.92-.18,1.53v3.79h-1.44v-8h1.44v1.41c.11-.4.4-.75.87-1.06.46-.3,1.01-.48,1.63-.53.05,0,.23-.02.53-.02Z"/>
  <path d="M311.06,421.36h1.44v1.7h-1.44v-1.7ZM311.06,424.57h1.44v8h-1.44v-8Z"/>
  <path d="M321.79,428.66c0,.17,0,.28-.02.34h-6.07c.02.89.22,1.54.59,1.97.38.43.93.64,1.68.64.68,0,1.21-.15,1.58-.44.37-.29.61-.74.71-1.35l1.39.11c-.18.93-.58,1.64-1.2,2.12-.62.48-1.44.72-2.46.72-1.25,0-2.2-.39-2.88-1.17-.65-.71-.98-1.73-.98-3.04,0-1.22.34-2.21,1.01-2.98.72-.8,1.67-1.2,2.83-1.2.65,0,1.26.14,1.82.41.56.28,1,.67,1.31,1.17.46.73.69,1.64.69,2.7ZM316.11,426.41c-.23.41-.36.89-.38,1.42h4.57c-.01-.23-.05-.49-.13-.75-.08-.27-.18-.49-.3-.67-.39-.58-1.01-.87-1.88-.87-.44,0-.82.08-1.15.23-.33.15-.57.37-.73.64Z"/>
  <path d="M322.89,429.94l1.31-.12c0,.56.18,1,.55,1.32.36.32.86.48,1.5.48,1.31,0,1.97-.43,1.97-1.3-.03-.34-.22-.59-.55-.76-.2-.1-.66-.23-1.38-.41l-.64-.15c-.37-.1-.66-.18-.88-.26-.22-.07-.44-.17-.68-.29-.24-.12-.42-.26-.54-.4-.12-.15-.23-.33-.32-.56-.09-.23-.14-.49-.16-.79,0-.51.14-.95.43-1.31.29-.36.65-.62,1.09-.79.43-.16.91-.24,1.44-.24.97,0,1.76.22,2.35.65.59.43.92,1.09.99,1.98l-1.34.21c-.01-.54-.19-.96-.54-1.25-.35-.29-.84-.44-1.48-.44-.43,0-.8.1-1.12.3-.32.2-.48.47-.48.8.04.32.19.56.47.7.28.15.76.3,1.45.45l.2.05c.74.15,1.3.3,1.68.45.37.15.69.37.96.67.28.31.42.75.42,1.31,0,.89-.32,1.54-.95,1.94-.63.39-1.41.58-2.35.58-.65,0-1.22-.1-1.71-.29-.5-.2-.9-.51-1.21-.94-.31-.43-.46-.96-.46-1.59Z"/>
  <path d="M331.03,430.87h1.62v1.7h-1.62v-1.7Z"/>
  <text transform="translate(-457.01 390.57)"><tspan><tspan class="cls-21" x="0" y="0" xml:space="preserve">  </tspan><tspan class="cls-24" x="9.39" y="0">Product</tspan><tspan class="cls-25" x="86.58" y="0"> </tspan><tspan class="cls-24" x="93.08" y="0">Manager</tspan><tspan class="cls-32" x="188.84" y="0"> </tspan><tspan class="cls-29" x="194.09" y="0"> </tspan><tspan class="cls-23" x="199.09" y="0">b</tspan><tspan class="cls-20" x="208.09" y="0">y</tspan><tspan class="cls-27" x="215.82" y="0"> </tspan><tspan class="cls-20" x="219.82" y="0">t</tspan><tspan class="cls-22" x="224.72" y="0">r</tspan><tspan class="cls-20" x="229.87" y="0">ade</tspan><tspan class="cls-27" x="256.59" y="0" xml:space="preserve"> –</tspan><tspan class="cls-29" x="268.59" y="0" xml:space="preserve">   </tspan><tspan class="cls-32" x="283.59" y="0" xml:space="preserve">                                                                                                                                                                                                                </tspan></tspan><tspan/><tspan/></text>
  <text class="cls-28" transform="translate(-457.01 413.57) scale(.49 1)"><tspan class="cls-7" x="0" y="0">PH</tspan><tspan class="cls-4" x="26.75" y="0">O</tspan><tspan class="cls-12" x="40.22" y="0">T</tspan><tspan class="cls-7" x="51.28" y="0">OGRAPHER</tspan><tspan class="cls-33" x="159.89" y="0">, </tspan><tspan class="cls-7" x="170.25" y="0">DESIGNER</tspan><tspan class="cls-33" x="268.64" y="0">, </tspan><tspan class="cls-8" x="279" y="0">S</tspan><tspan class="cls-12" x="290.91" y="0">T</tspan><tspan class="cls-7" x="301.96" y="0">O</tspan><tspan class="cls-5" x="317.12" y="0">R</tspan><tspan class="cls-13" x="328.72" y="0">Y</tspan><tspan class="cls-7" x="341.36" y="0">TELLER</tspan><tspan class="cls-33" x="412.3" y="0">, </tspan><tspan class="cls-7" x="422.66" y="0">MI</tspan><tspan class="cls-3" x="445.81" y="0">X</tspan><tspan class="cls-7" x="456.77" y="0">O</tspan><tspan class="cls-6" x="471.92" y="0">L</tspan><tspan class="cls-7" x="481.22" y="0">OGI</tspan><tspan class="cls-9" x="516.73" y="0">S</tspan><tspan class="cls-7" x="528.63" y="0">T</tspan><tspan class="cls-33" x="540.47" y="0" xml:space="preserve"> &amp; </tspan><tspan class="cls-8" x="565.11" y="0">S</tspan><tspan class="cls-7" x="577.01" y="0">TR</tspan><tspan class="cls-11" x="602.21" y="0">A</tspan><tspan class="cls-7" x="612.61" y="0">T</tspan><tspan class="cls-10" x="624.44" y="0">E</tspan><tspan class="cls-7" x="635.72" y="0">GI</tspan><tspan class="cls-8" x="656.08" y="0">S</tspan><tspan class="cls-7" x="667.98" y="0">T</tspan><tspan class="cls-33" x="679.82" y="0" xml:space="preserve">   </tspan></text>
  <text class="cls-26" transform="translate(-457.01 432.57)"><tspan class="cls-14" x="0" y="0">b</tspan><tspan class="cls-19" x="9" y="0">y</tspan><tspan class="cls-33" x="16.73" y="0"> </tspan><tspan class="cls-19" x="20.73" y="0">p</tspan><tspan class="cls-16" x="30.02" y="0">r</tspan><tspan class="cls-19" x="35.16" y="0">actice</tspan><tspan class="cls-33" x="78.03" y="0">. </tspan><tspan class="cls-19" x="86.32" y="0">Dissecting </tspan><tspan class="cls-14" x="164.09" y="0">sy</tspan><tspan class="cls-18" x="179.03" y="0">s</tspan><tspan class="cls-17" x="186.66" y="0">t</tspan><tspan class="cls-19" x="191.34" y="0">ems </tspan><tspan class="cls-17" x="225.39" y="0">t</tspan><tspan class="cls-19" x="230.07" y="0">o </tspan><tspan class="cls-17" x="242.78" y="0">t</tspan><tspan class="cls-19" x="247.46" y="0">ell </tspan><tspan class="cls-18" x="266.93" y="0">s</tspan><tspan class="cls-17" x="274.56" y="0">t</tspan><tspan class="cls-19" x="279.24" y="0">ories</tspan><tspan class="cls-15" x="314.15" y="0">.</tspan><tspan class="cls-19" x="316.64" y="0" xml:space="preserve">  </tspan></text>
  <path class="cls-2" d="M338.19,276.36c3.5,3.87,1.64,4.74,2.59,8.59,1.31,5.31,4.29,10.47,2,16.39l3.97-2.13c2,.15,2.03,7.29,1.76,8.96-.3,1.87-3.15,3.42.03,4.35l-2.16,1.09c-.32,1.2,1.31.33,1.48,1.14.79,3.79-4.29,4.39-4.95,6.56-.82,2.69-.66,7.64-.93,10.6-.32,3.55-2.64,6.73.82,10.14,5.01,4.93,14.29,2.11,4.89,15.05-1.56,2.15-14.25,13.33-16.33,14.11-1.09.41-5.9,1.52-6.94,1.47-1.61-.07-8.95-2.48-9.08-4.27l-1.04,1.42c-3.73-1.82-11.04-2.81-10.49-7.92l-1.43,1.43c-.42-3.53-3.56-6.87-3.59-10.55-.02-2.22,2.55-4.03,2.14-7.06-.22-1.63-2.48-3.66-3.24-5.46-1.74-4.1-2.58-9.3-4.16-13.14-.64-1.56-3.57-4.67-3.82-5.53-1.77-6.05-1.61-11.2-1.74-17.38l2.14-.02c-1.79-7.78,1.41-15.44,1.45-23.27,6.76-7.37,17.57-12.02,27.65-11.78,5.13.12,15.5,3.35,18.98,7.2ZM315.25,293.98l-3.13-1.27-1.08,2.86-2.15-1.44c-.06.78.19,1.65.01,2.4-.23.91-1.76,0-1.46,1.2.96.19,6.13,2.1,6.37,2.34.55.58-.64,2.45,1.19,1.99,2.1-.96-.63-3.48-.35-5.03,3.85,1.03,3.07-5.67.72-3.84-.12.1.06.65-.12.8ZM317.52,331.63c1.33-.85.68-12.93-1.79-14.41-1.31.86-1.02,1.91-1.12,3.19-.14,1.86-.64,9.9.71,10.9l2.2.31ZM324.03,344.62c-2.71.63-5.59.39-8.31.71-1.32.16-1.16-.22-1.07,1.44,3.28.04,7.19,1.26,9.38-2.15Z"/>
</svg>